<?xml version="1.0" encoding="utf-8"?>
<!-- Generator: Adobe Illustrator 22.0.1, SVG Export Plug-In . SVG Version: 6.00 Build 0)  -->
<svg version="1.1" id="Layer_1" xmlns="http://www.w3.org/2000/svg" xmlns:xlink="http://www.w3.org/1999/xlink" x="0px" y="0px"
	 viewBox="0 0 1000 250" style="enable-background:new 0 0 1000 250;" xml:space="preserve">
<style type="text/css">
	.st0{enable-background:new    ;}
	.st1{fill:#FFFFFF;}
</style>
<g class="st0">
	<path class="st1" d="M124.1,92.1l2.5,0.8l0.5,0.4l0.9,1l0.3,0.5l1.2,0.6h0.5h0.6l0.6,0.1l0.7-0.2h0.4l2.7-0.4l0.4-0.2l0.8-0.1h0.3
		l0.4-0.1l0.5-0.1l3-0.6l1.3-0.2l0.4-0.1h1.6h0.4h0.5l0.5-0.1l1.3,0.1l1.4-0.2l0.5,0.3l1,0.4l0.3-0.2l0.9-0.2l0.7,0.4l1.8,0.3
		l0.8,0.4l0.5,0.2l0.3,0.2l0.6,0.3l0.6,0.3l1.6,1l2.2,1.5l0.9,0.8l1,0.9l0.8,1v0.3l0.4,0.6l2,3.6l0.2,0.6l0.6,0.9l0.3,0.3l0.6,0.8
		l0.3,0.3l-0.7,0.9l-0.5,1l-0.3,1.1l-0.6,1.5l-0.6,1.9l-1.3,2.2l-0.3,0.6l-0.3,0.5l-0.3,0.5l-0.5,0.7l-0.5,0.9l-0.8,0.8l-0.7,0.3
		l-0.5,0.4l-0.3,0.5l-0.4,0.6l-1.1,0.1l-0.4,0.3l-0.7,0.5l-0.3,0.2l-0.5,0.5l0.9,0.3l0.8,0.3l0.5,0.2l0.3,0.3l1.3,0.6l0.8,0.4
		l1.5,0.1l0.3,1.2l0.7,0.6l1,0.3l0.7,0.4l0.3,0.7l0.2,0.3l1.4,1.9l0.3,0.8l0.5,1.5v1l0.4,1l0.1,0.7l-0.2,0.7l0.2,0.6l0.2,0.3
		l0.2,0.6l-0.2,0.9v1v0.6L167,143v0.5l0.2,1l-0.3,0.5l-0.1,0.3l-0.3,1.3l-0.1,0.3l-0.1,0.7l-0.7,0.7l-0.2,0.4v0.3l0.2,0.7l-0.6,1.9
		l0.1,0.5l-0.3,1l-0.2,0.3v1.2l0.2,0.4v0.7l-0.3,1.8h0.6l0.3,0.3l0.3,0.2l0.5,0.4l0.1,0.3l0.2,0.4l0.9,0.3l0.9-0.1l0.8-0.3l0.4-0.5
		l-0.6-1.1l-0.4-0.6v-1l0.2-0.6l0.6-1.5l0.2-0.4l1-0.7l0.4-0.2l1.4-0.2l0.4,0.2l0.5,0.3l0.4,0.1l0.7,0.6l0.2,0.4l0.4,0.7l0.3,0.8
		v0.5l0.2,0.5v0.4l-0.3,1.2l-0.1,0.5l-0.3,0.5l-0.4,1l-0.7,0.6l-0.9,0.9l-0.3,0.3l-1.4,0.9l-0.6,0.4l-0.4,0.2l-1,0.4l-1,0.2
		l-0.6,0.1l-0.5,0.1h-1.1h-0.6h-0.3l-1.2-0.3l-1.3-0.2l-0.3-0.1l-0.8-0.3h-1l-0.3-0.5l-0.5-0.5l-0.6-0.2l-0.4-0.3l-1-0.4l-1-0.3
		l-0.3-0.7l-0.2-0.8l-0.1-0.6l-0.9-0.3l-0.3-0.5l-0.7-1.4l-0.2-0.3l-0.2-0.5l-0.5-0.4l-0.2-1.4l-0.2-0.3v-0.6l-0.3-0.4v-0.8
		l-0.2-1.6v-0.3l-0.1-0.7l0.1-0.5l0.1-1.1l0.3-1.5l0.1-0.8l-1.7-1.2l-0.1-0.6v-1.9v-0.6l0.4-1.3l0.2-1v-0.3l0.2-0.4l0.1-0.5l0.2-1.1
		v-0.4v-0.6v-0.4l0.3-0.8l-0.3-0.3l-0.2-0.6l0.5-1l-0.2-0.3l-0.3-1.1l-0.9-1l-0.4-1.2l-0.5-0.1l-0.8-0.3l-0.2-0.6l-0.6-0.2l-0.7-0.5
		l-0.6-0.2l-0.8-0.1l-0.2-0.7l-0.4,0.1l-0.4-0.1H145l-0.6-0.3h-0.3l-1.1-0.7l-0.5-0.4l-0.3-0.5l-0.3-1.1l-0.1-1.3l-0.1-0.3l0.1-0.4
		l0.3-0.7l0.4-0.7l1.1-0.8l0.8-0.3l0.6-0.1l1,0.3l1.3,1.6l0.2,0.6v1.4l0.5,0.1l0.4-0.2l1.3-1.3l0.3-0.5l0.2-0.3l0.8-1.7v-0.4
		l0.3-0.9v-2l0.3-1l0.2-1.1l-0.3-0.6l-0.1-0.3l-0.1-1v-1.7l0.5-0.3l0.2-1.3l-0.3-0.6l-0.2-0.8l-0.2-0.4l-0.1-0.5l-0.2-0.9l-0.3-1.9
		l-0.7-0.9l-0.3-0.5l-0.7-1.2l-0.3-0.3l-1-0.8l-0.7-0.3l-1.8-0.4h-0.5l-0.5,0.2l-0.4,0.1l-1.1,0.6l-0.8,0.8l-0.3,0.6l-0.3,0.7
		l-0.2,0.8v0.5l-0.1,0.3l-0.4,0.6l-0.2,0.3l0.4,1.3l-0.1,3l0.1,2.6l-0.1,0.4l-0.1,0.3l-0.3,0.6l0.2,0.9l0.2,1.6l0.2,0.4l-0.2,0.8
		l0.3,1l-0.1,1.7l-0.6,1.1l-0.2,0.8l0.1,2.5l0.1,1.7l-0.2,0.7v0.8l0.2,1v0.7v0.6l0.2,0.6l0.1,0.6l0.1,0.3l0.2,1v0.8l-0.1,0.3
		l-0.5,0.6v0.8l1,0.2v0.7l-0.2,0.7l0.3,0.6l0.5,0.6v0.4l-0.2,1l0.1,0.4l0.1,0.4l0.3,1.3l0.2,0.7v0.5l0.1,0.5l0.3,0.7l0.3,0.7
		l0.3,0.4l0.6,0.4l0.4,0.7l0.6,0.4l1.1,0.7l1.9,0.3l0.3,0.1l0.4,0.1l0.9,0.5l0.5,0.9l0.1,0.8l-0.3,0.6l-0.3,0.5l-0.3,0.5l-0.3,0.1
		l-0.9,0.6l-1.4,0.4l-1.3,0.1l-1,0.4l-0.8-0.3l-0.9,0.3h-0.3l-0.4-0.3l-0.5,0.1h-0.7l-0.6-0.5l-0.8-0.1l-1.7-0.3l-0.4,0.2l-0.6,0.1
		l-0.8-0.3l-0.5-0.3l-0.5-0.2h-0.4l-0.4,0.1l-0.6-0.2l-1-0.1l-0.6-0.1l-1.8-0.3l-1-0.3h-2l-1.4,0.3l-0.3,0.1l-0.8,0.1l-0.5,0.3
		l-0.3,0.5l-0.7,0.4l-0.7,0.8l-2.1,1.1l-1.3-0.3l-1-0.7l-0.4-0.5l-0.3-0.7v-1.5l0.5-1.4l0.2-0.5l0.3-0.6l0.5-0.2l0.3-0.3l0.5-0.4
		l0.7-0.6l0.5-0.5h0.9l0.4-0.4l2.1-1.3l0.4-0.3l0.4-0.3l0.3-0.3l0.7-1.2l0.2-0.6l0.1-0.8l0.3-0.7l-0.2-0.8l0.3-0.8l-0.2-0.9l0.3-0.5
		l0.2-1h0.6l-0.3-0.6l-0.3-0.2l-0.6-0.8l0.6-1.5l0.3-0.4l-0.3-1.3l-0.1-0.6l0.1-0.5v-0.3l-0.1-1l0.3-0.9l-0.1-0.3l-0.5-0.4l0.2-0.4
		l0.2-0.4v-1.1l0.1-0.7l-0.5-0.2L126,123l0.3-1.3l0.1-0.7l-0.1-0.7l0.3-0.8v-1l0.1-0.3v-2l0.2-0.7l0.1-0.7v-2.4l-0.1-0.3v-0.3
		l-0.2-0.6l0.3-0.7l0.1-1.4l-0.8-0.6l0.1-0.3l0.4-0.6l0.3-0.7l-0.2-0.3l-0.1-0.5l0.4-0.9l-0.1-0.5l-0.5-0.4l-0.2-1.1l-0.1-0.5
		l-0.1-0.6l-0.7-1.7l-0.4-0.4l-0.6-0.5l-0.6-0.3l-0.8-0.5l-0.3-0.3l-0.4-0.3l-0.4-0.4l-0.3-0.3l-0.2-0.6l-0.2-0.7l-0.1-0.4l0.1-0.3
		l-0.2-0.4l0.5-1l1.2-0.9L124.1,92.1z"/>
	<path class="st1" d="M180.9,103.2l0.9,0.1l0.8,0.1l0.3,0.3h0.4l0.7,0.5l0.7,0.8l0.4,0.2l0.4,0.2l0.4,0.5l1.1,0.7l0.6,0.6l0.8,1.1
		l0.6,0.4l0.6,0.1l1,0.1l0.5,0.2l0.7,0.5l0.6,0.8v0.3l-0.4,1.1l-0.7,1.2l-0.5,0.2l-0.5,0.2L190,114l-0.3,1.6v0.3v0.5l-0.1,1.4
		l-0.2,2.1l0.1,1.3v0.5v1l-0.1,0.7l-0.1,0.8l-0.3,0.3l-0.3,1.2v0.5l0.5,0.9l0.3,0.2l0.3,0.8v1.3l-0.1,1.3l-0.7,0.4l0.8,0.6l-0.1,0.6
		l-0.1,0.7l0.2,0.6l0.1,3.5l0.2,1.1l0.2,0.4l0.3,0.4l0.7,0.3l0.6,0.2l0.6,0.3l0.5,0.4l0.3,0.4l-0.1,0.5l-0.3,0.5l-0.7,1.2l-0.8,0.4
		l-0.9,0.8l-1,0.9l-0.9,1.4l-0.2,0.3l-0.1,0.5l0.3,0.7l0.3,0.6v0.7l-0.3,0.6l-1,0.8l-1.5-0.2l-0.8-0.3l-0.7-0.3l-0.4-0.4l-1-0.8
		l-0.9-1l-0.4-0.1l-1.3-1.1l-1.2-0.6l-1.8-0.7l-0.4-0.1l-0.5-0.1l-0.6-0.3l-0.2-0.5l-0.3-0.4l-0.2-0.6l0.2-1.1l0.6-0.5l0.8-0.7
		l0.6-0.7l0.1-0.6l0.4-1l0.2-0.4l0.1-0.6l-0.1-0.6l0.3-1l-0.3-1l0.3-1.1v-1.8l0.1-1.1l-0.2-0.8l0.3-0.6l0.2-0.7v-1.1v-1.8v-0.9
		l-0.2-0.5l-0.3-1l0.1-0.5l0.3-0.6l-0.1-1.4l0.2-0.9l-0.1-0.5l-0.3-1l0.1-0.5l-0.1-1.4l-0.3-1.2l-0.3-0.6l-0.3-0.3h-0.7l-0.5-0.2
		l-0.4-0.3l-0.3-0.3l-0.2-0.8l0.2-1.3l0.6-0.6l0.5-0.6l0.3-0.2l0.9-0.8l0.6-0.7l0.2-0.5l0.4-0.5l0.5-0.3l0.1-0.4l-0.1-1.2l-0.4-1.2
		v-0.4l0.4-0.5l0.7-0.6L180.9,103.2z M182.8,86.9l1,0.1h0.4l0.7,0.6l0.3,0.4l0.3,0.1l0.6,0.6l1.1,1.3l0.4,0.5l0.3,0.3h0.3l1.1,0.9
		l0.4,0.2l0.7,0.8l0.7,1l-0.3,1.6l-1.9,1.3l-0.8-0.5l-0.3,0.3l-0.1,0.4v0.4l-0.3,0.3l-0.2,0.5l0.2,1.2l-0.1,0.5l-0.4,0.3l-0.3,0.6
		l-1,0.4h-0.9l-1-0.6l-0.6-0.2l-0.7-0.6l-0.5-0.7l-0.4-0.6l-0.4-0.4l0.1-0.4l-0.3-0.5l-1.4-0.3l-0.3-0.3l-0.5-0.4l-0.8-1l-0.2-1.2
		l0.7-1.3l1.2-0.9L181,91l0.7-0.6v-2.3l0.4-0.7L182.8,86.9z"/>
	<path class="st1" d="M215.5,102.9h0.3l1.3,0.1l1.3,1.2l0.5,1.3l0.2,0.4l0.3,0.6l0.7,0.1l0.7,1.6l0.3,0.4l0.5,0.8l0.2,0.5l0.3,0.8
		l0.1,0.8l0.2,0.4l0.3,0.3l0.9,1.2l0.3,1.8l0.6,0.1l0.8,0.1l0.3,0.4l0.4,0.3l0.3,0.9l-0.5,1l-1,1l-1.2,0.7l-1.9,0.8l-0.3,0.2l-1,1.1
		l-0.3,0.8l-0.2,0.5l-0.4,0.5l-0.9,0.3h-0.9l-0.3-0.3l-0.3-0.4l-0.6-0.9l-0.3-0.8l-0.5-1.3l-0.5-0.7l-0.3-0.6l-0.2-0.3l-0.4-0.8
		l-0.3-1l-0.1-0.3l-0.8-0.7l-0.6-1.5l-0.3-0.9l-0.4-0.8l-0.3-0.6l-0.3-0.3l-0.6-0.6l-0.4,0.3l-0.5,0.8l0.2,1.9l0.3,0.5l0.4,1.2
		l0.1,0.3l0.1,0.9l0.1,0.6l0.1,0.6l-0.1,0.7l0.4,0.5L211,120l0.1,0.6l0.1,0.5l-0.4,0.8l0.2,0.3l0.1,1.3l0.1,0.5l0.1,1l-0.1,0.7
		l-0.4,0.7l-0.1,0.7v0.5l0.4,0.3l0.1,0.7l0.1,0.4l-0.3,0.1l-0.1,0.8l0.2,2.6l-0.4,1.6l-0.3,0.5l-0.1,0.4l-0.3,0.4l-0.2,0.4l-0.8,0.4
		l0.1,0.6l0.4,0.7l0.5,0.4l0.6,0.3l0.5,0.2l3.2,0.9l0.5,0.1h0.4l0.3,0.1h0.8l1.5-0.1v0.7l0.5-0.3l0.6-0.6l0.6-0.2l0.2-0.5v-0.3
		l0.3-0.5l-0.2-1l-0.2-0.3l-0.1-0.3l-0.3-0.8v-0.4l0.3-0.9l0.5-0.4l0.4-0.3l0.6-0.1l0.3-0.2l1.9,0.9l0.3,0.5l0.6,1.5v1.1l-0.2,1.6
		l-0.5,1.2l-0.3,0.8l-0.4,0.9l-0.6,0.8l-0.6,0.3l-0.2,0.3l-0.3,0.4l-1,0.9l-2.4,1.3l-1.2,1l-0.2,0.3l-0.2,0.8l0.4,0.8v1.2l-0.7,0.9
		l-1.8,0.2l-0.6-0.1l-1-0.2l-0.6-0.2l-1.9-0.7l-0.6-0.2l-0.7-0.5l-1.2-0.5l-1-0.6l-0.7-0.2l-1.2-0.7l-0.5-0.3l-1.3-0.4l-0.3-0.7
		l-1.2,0.2l-0.5-0.6h-0.5l-1.1-0.1l-0.6,0.1l-0.5-0.1l-0.4-0.3l-0.3-0.8v-0.5l0.3-0.9l0.5-0.5l0.6-0.7l0.2-0.4l0.1-0.7l0.3-0.8
		l0.2-2.5l0.2-1v-0.6v-0.9l0.2-0.7l0.6-0.6l-0.6-1.3v-1.1l0.2-3.5l-0.1-0.7v-0.7l-0.1-0.7v-0.4l0.1-0.4l-0.2-0.5v-0.3l0.1-0.4
		l0.1-0.7l-0.1-0.5l0.4-1l-0.1-0.3v-0.5l0.2-0.3l-0.2-1l-0.1-1.6l-0.1-0.6v-1.5l-0.8-0.3l0.1-1h-0.8l-0.4-0.5l-0.2-0.7l0.1-0.5
		l0.5-0.8l1-0.5h0.3l0.4,0.1l0.6,0.1l1.6-0.5h0.3l0.3-0.2l0.9-0.3l0.4-0.1l0.3-0.2l0.7-0.2l0.5-0.1l1.2-0.3l1.5-0.8l1-0.3l0.9-0.5
		l0.5-0.4l0.4-0.1l1.4-0.8l0.5-0.3l0.8-0.6l0.1-0.7l0.4-0.7l0.6-0.6L215.5,102.9z"/>
	<path class="st1" d="M243.7,102.9h0.5l1.2,0.3l1.3,0.6l1.6,1l1.1,1l0.6,0.3l0.5,0.7l0.6,0.1l0.3,0.5l0.6,0.5l1.6,0.5l0.4,0.3
		l0.6,0.2l0.3-0.1h0.6l0.9,0.2l0.8,0.2h0.7l0.5,0.4l0.3,0.6v0.7l-0.3,0.8l-0.7,0.8l-0.4,1.3l-0.1,0.4l-0.1,0.6v2.9l-0.2,1.4l0.1,0.6
		l-0.1,0.8l0.2,1.4l-0.1,2l0.1,0.6v2.2l-0.3,0.7l0.1,1.8v0.8l0.1,0.4l0.4,0.4l0.1,0.3v1.2l-0.1,1l0.2,0.6l0.2,0.4v1.1l0.1,0.6
		l0.1,1.7l0.3,0.4l0.5,0.2h0.4l0.4,0.1h0.4h0.6l0.9,0.7v1.2l-0.1,0.3l-0.3,0.7l-0.5,0.8l-0.7,0.9l-0.3-0.1l-0.3,0.4l-0.3,0.4
		l-0.4,0.4l-0.5,0.4l-0.1,0.3l-0.3,0.3l-0.6,0.4l-0.4,0.5l-0.1,0.7l0.1,0.3l0.3,0.3l0.5,1v-0.3l-0.3,1.6l-0.6,0.7l-0.5,0.2l-1.2,0.1
		l-1.2-0.3l-1.2-0.3l-0.6-0.3l-1.1-0.5v-0.3l-2.1-1.4l-0.4-0.6l-0.6-0.4l-0.9-0.8l-0.9-0.6l-0.4-0.6l-0.5-0.4l-0.8-0.3l-0.6,0.1
		l-1,0.6l-0.2,0.5l-0.2,1.9l1,1l0.3,1l-0.3,1l-1.4,0.5l-1,0.2l-0.9-0.1l-1.6-0.6l-1.2-0.5l-0.2-0.3l-0.6-0.7l-0.5-0.6l-0.9-0.6
		l-0.4-0.4l-0.5-0.2l-0.3-0.4l-1.2-0.7l-0.4-0.2h-1.4l-0.3-0.2h-0.5l-0.6-0.5l-0.2-0.3l-0.3-0.6l0.3-1l0.5-0.6l0.4-0.3l0.7-0.7
		l0.5-0.8l0.3-0.7v-0.3v-0.6l0.3-0.9v-0.8l-0.2-0.5l-0.1-1.1l0.2-0.5l0.2-0.4v-0.7l-0.2-0.4l-0.1-1.1l0.1-0.3l0.1-0.4l0.1-0.6
		l-0.1-2.7l-0.7-1.2v-0.8l0.4-0.6l0.6-0.5l0.3-0.2l1.3-0.2l1.4-0.2l0.4,0.1l1.2-0.2l0.3-0.2l0.5-0.1l0.6-0.1h1.1h0.4l0.3-0.1
		l1.4-0.6l0.4-0.3h1.1l0.9-0.6l0.9-0.6l0.7-0.9l0.3-1.3l0.3-0.7v-0.4v-0.4l0.6-1.1l-0.1-1.2l-0.2-0.8l-0.4-0.8l-1.4-1.5l-0.6-0.3
		l-0.5-0.3h-0.8l-1.2-0.7l-0.9-0.3h-0.7l-1.5,0.3l-1.5,1.2l-0.3,0.6v0.9v0.9l0.3,0.6l0.4,0.2l1.1-0.3h0.3l0.3,0.2l0.8,0.1l1.1,0.9
		l0.1,0.3l0.1,0.3l0.1,0.9l-0.1,1.4l-0.4,0.8l-0.8,0.8l-1.3,0.6l-1,0.2H236l-0.8-0.2l-0.8-0.3l-0.9-0.3l-1.2-1.2l-0.5-0.6v-0.5
		l-0.1-0.3l-0.4-0.2l-0.1-1l-0.3-1l0.1-1.3l0.1-0.4v-0.6l0.4-1l0.1-0.7l1.5-2.1l0.2-0.5l0.7-0.6l1.7-1l0.6-0.3l1.5-0.4l0.9-0.6
		l1.5-0.5l0.8-0.9l0.1-0.3l0.2-0.6l0.2-0.8l1.1-0.8L243.7,102.9z M246.9,125.6l-1,0.6l-0.7,0.4l-0.8,0.2h-0.6l-0.8,0.3l-0.6,0.5
		l-0.4-0.1h-0.5l-0.5,0.5l0.1,0.6l0.1,0.6l0.2,0.8l0.3,2.6l0.1,0.4l-0.3,0.6l0.1,1l-0.2,2.6v1l-0.8,0.8l0.7,0.1l0.5,0.1h1.1l0.5,0.1
		l0.5-0.1l1.7,0.1l0.9,0.2l1,0.3l-0.3-0.6L247,139l-0.4-6.8l-0.3-1.4l0.3-0.9L246.9,125.6z"/>
	<path class="st1" d="M269.4,103.4h1.3l0.5,0.1l0.3,0.1l0.7,0.1l0.4,0.1l1,0.2l0.8,0.3l0.8,0.3l0.8,0.5l1.5,1.3l0.3,0.5l1.2,1.8
		l0.3,0.6l0.4,0.4h0.7l0.8-0.2l0.9-0.9l0.8-0.9l0.3-1.2L283,106v-0.5l0.2-0.5l0.6-1l0.6-0.4h0.6l0.3-0.1l1,0.2l0.3,0.1l0.3,0.3
		l0.8,0.6l0.6,0.3l0.8,0.8l0.4,0.2l1.4,0.6l0.3,0.1l0.6,0.2h0.4l0.9,0.7l0.5,0.8l0.2,0.6v0.4l-0.1,0.3l-0.7,1.1l-0.5,0.7l-0.5,0.4
		l-0.3,0.7l-1.3,1l-0.3,0.5l-1,1.6v0.3l-0.1,0.6l0.1,0.4l-0.1,0.7l-0.1,1l-0.9,1.1l-0.4,0.3l-0.5,0.2l-0.6-0.1l-0.8-0.1l-0.7-0.7
		l-0.6-1.2l-0.3-1.4v0.3l-0.2-1l-0.5-1.1l-0.2-0.3l-0.5-0.6l-0.9-0.5h-0.6l-0.6,0.1l-0.6,0.4l-0.2,0.6l-0.1,0.4l-0.1,0.6l0.1,2.2
		v0.3l0.1,0.6l0.1,0.5l0.1,1.3l0.1,0.8l0.6,0.8l-0.2,0.6l-0.3,0.6l-0.1,0.6l-0.2,0.4v0.6v0.4l0.1,0.5l0.4,0.4v2.8l-0.1,0.4l-0.2,1.3
		l0.5,1.5l-0.2,0.6l-0.2,0.5l-0.3,1l-0.3,0.7l-0.4,0.1l-0.3,0.3l-0.1,0.6l-0.3,0.4l-0.3,0.9l0.6,0.3h0.4l0.6,0.2l0.4,0.1l0.4,0.1
		l1.1,0.1l0.6,0.1l0.7,0.2l1.3,0.1l1,0.3l1.1,0.3l0.6,1.5l-0.2,1l-0.8,1.1l-1.3,0.8l-2.5,0.9l-0.6,0.3l-0.5,0.2l-0.4,0.4l-0.2,0.7
		v0.4l0.3,0.9l0.1,0.9v0.7l-0.1,0.5l-0.7,0.6l-1.3,0.6l-0.8-0.1l-1.6-0.7l-0.4-0.3l-0.5-0.4l-0.6-0.3l-0.5-0.7l-0.4-0.2l-0.6-0.5
		l-0.7-0.5l-0.4-0.2h-1l-1-1.1l-0.9-0.3l-0.7-0.3h-0.6l-0.8-0.4l-1-0.6l-0.5-0.5l-0.1-0.7l0.2-0.5l0.6-0.9l1-0.3l0.5-0.3l0.4-0.6
		l0.4-0.7v-1.3l0.1-0.4l0.1-0.3l-0.2-1.7l0.3-0.5l0.2-0.5l0.1-2.1l-0.2-1v-0.7l-0.3-0.7l-0.1-0.4l0.2-1.3l0.3-0.9l-0.2-1.3l0.3-0.7
		l0.2-0.6l-0.2-0.8l-0.3-1.4l0.7-0.4l-0.5-0.8l-0.1-0.3l0.1-0.3l-0.1-1l-0.1-0.4l0.1-1.5l-0.1-0.6V117l-0.2-0.6l-0.4-0.4l-0.3-0.3
		l-0.5-0.3l-0.3-0.2l-1.5-0.2l-0.3-0.2l-0.3-0.3l-0.3-0.8v-0.3l0.1-0.6l0.3-0.7l0.3-0.4l0.6-0.7l0.5-0.5l0.3-0.3l0.3-0.3l0.5-0.5
		l0.3-0.8l0.4-1.2l-0.3-1l-0.1-0.3l-0.3-0.6v-0.7l0.7-1.3L269.4,103.4z"/>
	<path class="st1" d="M309.5,83.2h1.9l0.3,0.5l0.3-0.2l0.3,0.4l0.3,0.4l0.5,0.8l0.1,0.7v1l-0.2,0.8l-0.3,0.3l-0.4,0.5l-0.3,0.1
		l-0.8,1.1l-0.2,0.3L311,91l0.3,1.5l0.6,1.3l0.3,0.7l0.5,0.7l0.7,0.7l0.3,0.6l0.5,0.3l0.7,0.8l0.3,0.3l0.6,0.8v0.3l-0.3,0.7l0.9,1
		l0.3,0.4l0.8,0.7l0.4,0.3l0.8,0.2l0.3,0.5l0.5,0.7l0.7,0.6l0.5,0.6l0.3,0.7l0.3,0.5l1,0.7l0.3,0.4l0.3,0.2l0.3,0.4l0.7,0.5l0.7,0.5
		l0.6,1l0.1,0.5l0.1,0.7l-0.6,0.7l-0.1,0.5l-0.2,0.3l-0.5,4v1v2l0.1,0.5v0.3l0.2,1.1v-0.4l-0.3,1.2v0.8l-0.3,0.2l0.4,0.3v1.3
		l0.3,0.4v0.4l-0.1,1.3l-0.4,0.8v0.4l0.2,0.6l0.3,0.4v2.1l-0.1,0.6v0.5v0.8l0.2,0.7l0.1,1.7l-0.2,1l0.3,1.4l1,1.4l0.3,1.1l-0.6,1
		l-0.3,0.2l-1.2,0.3l-0.8,0.1l-1,0.2l-0.9,0.2h-0.8l-1,0.4l-0.7,0.1l-0.3,0.1l-0.3,0.3h-0.3l-1.7,0.6l-0.5,0.3l-0.7,0.3l-1.2,0.6
		l-0.4,0.4l-1.1-0.1l-0.6,0.6l1.3,2.4l0.1,0.8l-0.2,0.7l-0.9,1l-0.6,0.1l-0.4,0.1H311l-0.4-0.1l-0.6-0.1l-0.9-0.3l-0.6-0.3l-0.8-0.4
		l-0.3-0.1l-1.2-0.7l-0.5-0.5l-1.7-1.2l-0.3-0.2l-0.4-0.3l-0.4-0.1l-0.6-0.5l-1-0.4l-0.7-0.3l-1-0.3l-0.6-0.1l-1-0.2l-0.6-0.2
		l-0.7-0.5l-0.3-0.3l-0.4-0.8v-0.5l0.5-1l0.3-0.7l0.9-1.2l0.3-1v-3.2l0.2-0.7l-0.2-1.4l0.3-1.2l-0.2-1.4l-0.3-0.9v-0.4l0.1-0.6
		l0.1-0.5l0.4-1.2l0.1-1l-0.1-2.3l-0.2-2.5l0.1-0.7l-0.1-2.1l-0.1-0.4l-0.2-0.4v-0.4l0.4-0.3v-0.3l-0.2-0.5l0.1-0.5l0.1-0.3l-0.2-1
		l-0.4-0.5l-0.6-0.2l-0.7-1v-1l0.5-0.6l0.4-0.3l0.3,0.1l0.3-0.2h1l0.7-0.1l0.6-0.1l0.7-0.3l0.4,0.1l0.5-0.1l0.5-0.2l0.9-0.4l0.6-0.2
		l1.4-0.8l0.9-0.6l0.8-0.4l0.5-0.2l0.9-0.2l0.7,0.4l0.6,0.7l-0.1,0.6l-0.2,0.7l-0.6,1.3l-0.1,0.6l-0.1,0.8l0.1,3.2l0.1,0.8l0.4,1
		l-0.3,0.7l0.1,0.9l0.1,1l0.1,1.6v0.4v0.5l-0.3,1.3l-0.3,0.8l0.1,0.4l0.2,1.3l0.1,0.9v2.1l0.1,0.7l0.1,0.5l-0.1,2l-0.1,0.9l-0.7,1.4
		l-0.3,0.5l-0.3,0.4l-0.6,0.5l-0.6,0.7v0.4h0.6l0.6,0.1l1,0.8l0.7,0.3l0.6,0.5h0.8l0.6,0.2l2.8,0.6l0.6,0.2l0.6-0.2l0.5-0.5l0.2-0.3
		v-0.6l-0.2-0.3l-1.4-1l-0.3-0.9l-0.1-0.4l-0.1-0.5v-0.6l-0.3-5.5v-1.3v-0.4v-1l0.1-1.6l0.3-0.2l0.1-0.4l-0.3-0.5l-0.2-1.6v-0.7
		l0.2-1.9v-0.5l0.4-1.2l0.1-0.5l-0.3-0.8l0.3-0.8V115l0.3-1.4l0.3-0.4l0.4-0.3l-0.1-0.6l-1.3-0.4l-1.4-0.6l-0.3-0.5l-0.4-0.3
		l-1.3-1.1l-0.5-1l-1-1.2l-0.3-0.5l-0.5-0.9l-0.2-0.4l-0.9-1.2v-0.6l-1-0.3l0.2-1l-1-0.1l-0.4-0.6l-0.8-1l-0.3-0.8l-0.3-0.4
		l-0.9-0.6l-0.3-0.4l-0.6-0.3l-0.7-0.3l-1-0.1l-1,0.5l-0.6,0.3l-0.6,0.3l-0.8,0.1l-1.4-0.9l-0.1-0.6l0.3-1.9l0.2-0.4l0.5-0.1
		l0.3-0.5l1.4-0.6l0.2-0.3l1.6-0.4h0.3l0.8-0.3l0.9,0.1l0.5-0.2l1.2,0.1l1.1,0.4l0.5,0.3l0.9,0.3l0.3,0.5l1.1-0.1l-1.5-3.5v-0.3
		l-0.2-0.5l-0.2-2l0.4-1.5l0.3-0.4l0.3-1.1l0.6-0.3l0.6-0.6l0.6-0.2L309.5,83.2z"/>
	<path class="st1" d="M346.7,102.9h0.5l1,0.1l2,1l0.4,0.7l0.8,0.3l2.8,2.1l0.7,0.3l1.3,0.7l0.4,0.2l0.5,0.2l0.5,0.2l1.3,0.5l1.1,0.3
		l1.4,1l0.2,1l-0.1,0.5l-0.3,0.5l-0.3,0.3l-0.3,1.3l0.1,0.5v0.6l-0.3,1.2l-0.2,1.2l0.3,1.3l-0.3,1v0.4l0.1,0.6l-0.1,0.4v1.2
		l-0.2,0.4v0.8l0.1,0.6l-0.1,1v0.7l0.2,0.4l0.1,0.7l-0.1,0.5l-0.2,0.8l0.3,1v0.7l-0.1,0.4l-0.3,1.7l-0.2,0.3l0.4,0.3l-0.2,0.3
		l0.3,2.3l0.2,1.2l-0.2,0.3l0.1,0.6l-0.1,0.4l0.3,0.8l0.8,0.3l0.7,1v0.3l-0.4,0.7l-0.3,0.5l-0.3,0.2l-1.2,0.3l-0.3,0.2l-0.4,0.3
		h-0.6l-0.6,0.1l-0.6,0.3l-0.7,0.2l-1.7,0.8l-0.9,0.3l-1.6,0.6l-0.3,0.2l-1.9,0.9l-0.7,0.6l-0.3,0.6l0.1,0.7l0.4,0.8l0.2,1l-0.3,0.7
		l-1.5,1l-1.1-0.1l-0.4-0.2l-0.3-0.1l-0.3-0.3l-1.2-0.7l-1-0.2l-0.2-0.3l-0.7-0.1l-0.3-0.2l-0.3-0.3l-0.6-0.3l-0.3-0.4l-1.4-0.8
		l-1.1-1l-2.3-1l-0.6-0.3l-0.5-0.3l-0.4-0.2h-0.3l-1.1-0.5l-0.6-0.2l-0.6-0.8l0.3-0.9l1.1-1.3l0.2-0.5l0.3-0.8l0.3-1l0.1-1l0.1-0.3
		l0.3-2l0.1-2l0.4-0.3l-0.5-0.5V131v-1.1v-0.4l-0.1-0.5l0.2-0.8l-0.1-0.5l-0.1-1.2l0.3-1.2v-0.5l-0.3-0.6l0.1-0.6l0.3-0.9l-0.3-0.3
		l-0.1-0.8v-0.3v-0.8l0.2-0.4l-0.2-0.5l-0.1-0.6l0.1-1.3l-0.1-0.7l-0.1-1.5l-0.5-1.2l-0.5-0.3l-0.5-0.6l-0.2-0.7l0.1-0.3l0.3-0.4
		l0.2-0.3l1-0.5l0.9-0.3l0.8-0.1l1.2-0.3l0.5-0.1l1.2-0.3l1.2-0.4l1.9-0.6l0.8-0.7l1.1-0.6l0.8-0.7l0.4-0.8l0.2-0.6l-0.1-1l0.1-0.3
		l0.4-0.6l0.7-0.5L346.7,102.9z M344.7,112l-0.7,0.3v0.5l0.1,0.4l0.3,0.7v1.7l0.1,1.6v1.1l0.1,0.4v0.3v0.4v0.9v0.5v0.4l-0.1,0.7
		l0.2,0.6v1.4l0.1,0.6l0.1,0.7l-0.2,0.8l-0.2,0.9l0.6,1.3v0.3l-0.4,1.1l0.1,0.6l-0.1,0.7l-0.3,0.7l0.2,0.3l-0.2,0.9l-0.2,1.7
		l-0.2,1.1l-0.3,0.8l-0.5,1l-0.2,0.4l0.4,0.4l1.3,0.5l0.6,0.1h0.3l1.1,0.3h0.8l0.4,0.1l1.8,0.3h0.5l0.9-0.1l0.2-0.7v-0.3l-1-1.1
		l-0.5-0.9l-0.3-1.7l0.1-0.6l0.2-2.2l0.1-0.9v-0.5l-0.1-0.3l0.1-0.8l-0.2-0.4l0.1-1.5l0.6-0.6l0.1-0.3l-0.5-1l0.1-0.8l0.4-1
		l-0.6-0.7v-0.4l-0.2-1.1v-1.7l-0.2-0.7l0.2-0.8v-1l0.2-0.6L350,116l0.2-0.7l0.3-0.7v-0.7l-1.3,0.3l-0.6-0.2l-0.6-0.2l-0.7-0.4
		l-0.6-0.5l-0.5-0.5l-1.2-0.3L344.7,112z"/>
	<path class="st1" d="M417.6,91.7l1.8,0.2h0.4l0.7,0.5l0.3,0.3l0.4,0.7l0.3,1v0.6l-0.3,0.7l-0.5,0.8l-0.4,0.6l-1.2,1l-0.8,0.4
		l-0.5,0.4l-0.7-0.1L417,99h-0.6l-1.2,0.3h-0.6l-0.6-0.4h-0.8l-1.7,0.8l-1.2,0.1l-2.6,0.1l-0.6,0.2l-0.5,0.5l-0.4,0.3l-0.8,0.9
		l-0.3,1.3l-0.1,0.6l-0.1,0.6v0.9v0.5v0.4l-0.3,0.6l-0.2,1l0.1,1v0.4v1.5l-0.1,0.4v1l0.1,0.5l0.1,0.5l0.3,0.6l-0.3,0.3l0.1,0.8
		l-0.2,0.6l0.3,1.4l-0.1,0.5l-0.3,1v0.3l0.2,0.6l0.2,0.8l-0.2,0.9l-0.2,0.8l0.3,0.3l-0.3,0.7l0.1,0.5l-0.1,0.5v0.6l0.3,0.5l0.1,0.9
		l-0.2,1.1l0.2,0.8l0.1,0.6v1.2l0.3,0.3v0.8L405,131l0.2,0.7l0.1,0.5l-0.3,0.3v0.3l0.7,0.3l-0.1,1.6l-0.4,0.7l-0.3,0.4l0.2,0.5
		l0.3,0.1l0.3,0.9v0.5l0.1,0.6l-0.1,0.8l0.2,1l0.1,0.6l0.3,0.8l0.4,0.9l0.2,0.7l0.2,0.4l1.3,1.2l0.6,0.3v0.4l0.6,0.2l0.6,0.3
		l1.2,0.1l1.1-0.5l1.1-1l0.6-1.1l0.2-0.8v-1.2v-0.5l0.3-0.6l0.3-0.4l0.1-0.3l0.1-0.3l0.2-0.6l-0.3-0.5v-0.3l0.1-0.8l0.4-0.3l0.1-1
		l0.4-0.4v-0.8l-0.3-0.8l0.3-0.9l-0.3-0.4V132l0.3-0.6l0.2-0.4l0.4-0.3v-0.7l0.2-0.7l0.8-1.4l0.1-0.6l0.3-0.6l0.1-0.9l0.3-1l0.6-0.9
		l0.3-0.7v-0.4l0.2-0.6l0.9-0.1l0.1-0.7l0.5-0.3l0.4-0.6l0.4-0.3l0.3-0.5l0.8-0.3v-0.3l0.6-0.2l0.9-0.4l0.4,0.1h0.3l0.2-0.4h0.3
		l0.7,0.2l0.4-0.2l1.3,0.5l0.9,0.7l0.2,0.4l0.5,1.3v0.5l-0.1,0.3l-0.4,1.1l-0.3,0.5l-0.3,0.3l-0.3,0.2l-0.4-0.1l-0.2,0.4l-0.3,0.3
		l-0.9,0.2l-0.4-0.1l-0.6,0.2l-0.6,0.8l-0.3,1.4l-0.2,0.3l-0.1,1.4l-0.5,0.5l-0.1,0.7v0.3l-0.1,2.2l-0.3,0.4l0.4,0.5l-0.2,1l0.2,0.8
		l-0.2,2.3l0.2,0.5v0.6l0.9,2v0.3l-0.2,0.6l0.1,1.3l0.2,0.4l0.3,0.7l0.4,1v0.6l0.1,0.3l0.6,1l0.9,0.5l-0.2,1.3l-0.2,0.8l-0.4,0.1
		l-1,0.7l-0.7,0.2L424,151l-0.7,0.1l-0.3,0.2l-0.6-0.1l-0.6,0.2l-0.3,0.1l-0.5,0.2l-1.3,0.3l-0.4,0.1l-0.6-0.1l-0.8,0.2l-0.6-1v0.3
		l-0.9,0.9l-1.3-0.3l-0.7-0.1h-2.1l-0.7-0.2l-1.1,0.2l-0.4-0.3h-0.5l-0.4,0.1l-1-0.2l-0.8-0.2h-0.5l-0.6-0.5l-1.2,0.3l-0.9-0.6
		l-0.7,0.3l-1-0.2l-1.9-0.4l-1.2-0.1h0.2l-0.4-0.1c-0.2,0-0.5-0.1-0.8-0.2h-1.6h-1.9H394h-0.6l-1.1,0.3l-0.9,0.2l-0.7,0.5l-0.6,0.6
		l-0.9,0.6l-1.3,1.3l-0.5,0.3l-0.4,0.1l-0.6,0.3h-0.7l-1-0.3l-0.6-0.3l-1.1-1.4l-0.1-0.5l-0.1-0.7l0.2-1.6l0.3-0.5l0.8-1.1l2.1-1.8
		l1-0.5l0.3-0.2l0.5-0.5l0.5-0.4l0.7-1.1l0.3-1.1l-0.1-0.3l0.3-0.5l0.1-0.7l0.5-0.7l-0.3-0.7v-0.5v-0.4l-0.3-0.3l0.1-0.5l-0.1-0.6
		v-1.2L390,135l0.3-0.6l0.2-0.8l0.1-0.6v-1.5v-0.4V129l0.5-0.1l0.2-0.3l0.1-0.9l-0.3-0.8l-0.3-0.6l-0.2-1.5l0.2-0.6l0.3-1.1v-0.6
		l0.5-0.4l0.3-0.5l-0.8-0.3V121l0.1-0.6l-0.1-0.7l-0.1-1l-0.1-0.6l0.1-0.4v-0.4l-0.5-1.3v-0.4l0.3-0.9l0.2-0.5v-2.6l0.1-0.8
		l-0.3-2.9l0.3-1.3v-0.8l-0.1-1.2l0.1-0.7l-0.1-0.6l-0.5-1.9l-0.9-1l-0.5-0.5l-1.3-0.3h-0.5l-0.6-0.3l-1.5-1.3l-0.2-1.1l0.2-0.7
		l0.6-0.9l0.5-0.3l0.3-0.1l0.6-0.3l1.2,0.2h1.1l1.5,0.3h0.5l0.5,0.1l0.7-0.2l1,0.1h0.6l0.3,0.1l0.9-0.2l1.3,0.2l1,0.2l0.5-0.1
		l1.2,0.2l1,0.1l0.8,0.5h0.4l1-0.1l-0.3-0.3l0.3-0.2l0.4-0.2h0.6L404,95l1.7-0.1l1.9,0.2l1-0.1h0.6l1.2-0.1h0.3l1.5-0.4l0.8-0.1
		l1.6-0.7l0.9-0.7l0.9-0.8l0.7-0.3L417.6,91.7z"/>
	<path class="st1" d="M438.2,103.2l0.9,0.1l0.8,0.1l0.3,0.3h0.4l0.7,0.5l0.7,0.8l0.4,0.2l0.4,0.2l0.4,0.5l1.1,0.7l0.6,0.6l0.8,1.1
		l0.6,0.4l0.6,0.1l1,0.1l0.5,0.2l0.7,0.5l0.6,0.8v0.3l-0.4,1.1l-0.7,1.2l-0.5,0.2l-0.5,0.2l-0.3,0.9l-0.3,1.6v0.3v0.5l-0.1,1.4
		l-0.2,2.1l0.1,1.3v0.5v1l-0.1,0.7l-0.1,0.8l-0.3,0.3l-0.3,1.2v0.5l0.5,0.9l0.3,0.2l0.3,0.8v1.3l-0.1,1.3l-0.7,0.4l0.8,0.6l-0.1,0.6
		l-0.1,0.7l0.2,0.6l0.1,3.5l0.2,1.1l0.2,0.4l0.3,0.4l0.7,0.3l0.6,0.2l0.6,0.3l0.5,0.4l0.3,0.4l-0.1,0.5l-0.3,0.5l-0.7,1.2l-0.8,0.4
		l-0.9,0.8l-1,0.9l-0.9,1.4l-0.2,0.3l-0.1,0.5l0.3,0.7l0.3,0.6v0.7l-0.3,0.6l-1,0.8l-1.5-0.2l-0.8-0.3l-0.7-0.3l-0.4-0.4l-1-0.8
		l-0.9-1l-0.4-0.1l-1.3-1.1l-1.2-0.6l-1.8-0.7l-0.4-0.1l-0.5-0.1l-0.6-0.3l-0.2-0.5l-0.3-0.4l-0.2-0.6l0.2-1.1l0.6-0.5l0.8-0.7
		l0.6-0.7l0.1-0.6l0.4-1l0.2-0.4l0.1-0.6l-0.1-0.6l0.3-1l-0.3-1l0.3-1.1v-1.8l0.1-1.1l-0.2-0.8l0.3-0.6l0.2-0.7v-1.1v-1.8v-0.9
		l-0.2-0.5l-0.3-1l0.1-0.5l0.3-0.6l-0.1-1.4l0.2-0.9l-0.1-0.5l-0.3-1l0.1-0.5l-0.1-1.4l-0.3-1.2l-0.3-0.6l-0.3-0.3h-0.7l-0.5-0.2
		l-0.4-0.3l-0.3-0.3l-0.2-0.8l0.2-1.3l0.6-0.6l0.5-0.6l0.3-0.2l0.9-0.8l0.6-0.7l0.2-0.5l0.4-0.5l0.5-0.3l0.1-0.4l-0.1-1.2l-0.4-1.2
		v-0.4l0.4-0.5l0.7-0.6L438.2,103.2z M440.1,86.9l1,0.1h0.4l0.7,0.6l0.3,0.4l0.3,0.1l0.6,0.6l1.1,1.3l0.4,0.5l0.3,0.3h0.3l1.1,0.9
		l0.4,0.2l0.7,0.8l0.7,1l-0.3,1.6l-1.9,1.3l-0.8-0.5l-0.3,0.3l-0.1,0.4v0.4l-0.3,0.3l-0.2,0.5l0.2,1.2l-0.1,0.5l-0.4,0.3l-0.3,0.6
		l-1,0.4h-0.9l-1-0.6l-0.6-0.2l-0.7-0.6l-0.5-0.7l-0.4-0.6l-0.4-0.4l0.1-0.4l-0.3-0.5l-1.4-0.3l-0.3-0.3l-0.5-0.4l-0.8-1l-0.2-1.2
		l0.7-1.3l1.2-0.9l1.3-0.8l0.7-0.6v-2.3l0.4-0.7L440.1,86.9z"/>
	<path class="st1" d="M476.5,103.5l1.6-0.2l0.5,0.3l0.9,0.3l0.8,0.9l0.4,0.6l0.3,0.5l0.6,0.3l0.3,0.3l0.3,0.5l0.3,0.4l0.6,0.5
		l0.5,0.3l0.3,0.3l2,0.4l1.1,0.3l0.7,1.1l-0.1,0.8l-0.2,0.8l-0.9,0.8l-0.8,0.6l-0.5,0.3l-0.3,0.4l-0.3,1.3v5.8l-0.3,1l-0.1,1v0.5
		l0.1,0.5l0.2,2.3l0.1,0.6v0.4v0.6v0.3l0.1,0.3l0.1,0.3l-0.2,0.5v0.5l0.3,0.9l-0.3,0.5v0.6l0.6,0.9l-0.3,0.6l-0.1,0.9l0.3,0.7
		l-0.3,0.7v0.6l0.1,0.9l0.3,1.8l0.4,0.2l0.8,0.1l0.7,0.3l0.4,0.4l0.3,0.5v0.7l-0.5,1.3l-0.4,0.4l-1.1,1.1l-1.1,0.7l-0.6,0.6l-0.3,1
		l-0.3,0.5l0.5,0.4l0.3,0.8l0.1,0.3l-0.3,1.1l-0.4,0.7l-1,0.3l-0.5,0.1h-0.5h-0.6l-0.9-0.3l-0.6-0.3l-0.4-0.1l-1.2-0.7l-0.9-0.3
		l-0.6-0.5l-0.5-0.6l-0.7-0.8l-0.4-0.4l-0.1-0.4L475,146l-0.3-0.3l-0.5-0.2l-0.5-0.1l-0.2-0.3l-0.3-0.3l-0.4-0.2l-1.6-0.3l-1.3,0.5
		l-0.4,0.4l-0.4,1.2v0.7l0.3,0.5l0.6,1l0.3,0.6l-0.1,0.6l-0.2,0.5l-0.5,0.6l-1,0.4l-1.2-0.1l-0.5-0.1l-1-0.3l-0.3-0.2l-1.3-0.7
		l-0.5-0.3l-0.5-0.3l-0.3-0.3l-1.1-0.8l-0.4-0.6l-1.9-1.2l-0.6-0.6h-0.3l-0.3-0.2l-1-0.3l-1-0.3l-0.5-0.5l-0.2-0.6l0.1-0.8l0.2-0.3
		l0.4-0.7l1.4-1.7l0.3-0.6l0.1-0.5l0.2-1.1V137l-0.1-1.6l-0.3-0.6l0.1-0.5l0.1-0.7l-0.2-0.7l0.4-0.3v-1.3l0.2-0.7l-0.1-0.4l-0.1-0.5
		l0.2-0.5l-0.1-1.2l0.1-0.6v-0.4l-0.3-0.5v-0.5l0.2-0.7l-0.1-1.8l-0.1-1l-0.6-1l0.3-0.9l0.3-0.6v-0.6l0.1-1.5l-0.1-0.6l-0.2-0.7
		l-0.1-0.6l-0.5-0.3h-0.4l-0.3-0.4h-1l-1-1l-0.1-0.6l0.4-1.5l0.3-0.4l2.3-2.3l0.3-0.3l0.4-0.5l0.5-0.8v-0.6l-0.3-0.5l-0.3-0.9
		l0.1-0.6l0.7-1.5l0.9-0.2h0.9l0.6,0.1l1.1,0.4l0.3,0.3l0.7,0.6l0.5,0.3l1.7,1.4l0.3,0.3l0.6,0.3l0.6,0.3l0.4,0.4l1,0.3l0.1,0.4h0.5
		l1,0.5l0.1,0.6v0.9l-0.3,0.6l-0.4,0.4l-0.6,0.9l-0.1,0.3v0.4l-0.2,0.6l0.1,0.6l0.2,2.6v0.5l-0.3,1.3l0.2,1.2v3.5v0.6l-0.1,1.2
		l0.1,1.4l0.2,1.1l0.1,0.7l0.1,0.6l-0.2,0.5l0.1,1.6l-0.1,0.7l-0.1,1.6l-0.4,1.7l-0.3,0.5l-0.4,0.7l-0.3,1.2l0.3,0.6l1.1,0.1
		l0.3,0.1l0.3,0.2l1.3,0.1l0.3,0.2l0.7,0.1l1,0.2l0.8,0.2l1.3,0.3l0.7-0.4l-0.1-1.2l-0.6-0.5l-0.6-1l-0.3-2.1l0.1-2v-0.4l0.2-0.6
		v-0.3l0.1-1l-0.1-1l0.1-0.3l0.1-1.2l0.1-0.4l0.3-1.1l0.5-0.7l-0.6-0.2l-0.2-0.5l-0.2-1l0.1-0.7v-1.3l0.2-1.6v-0.4l0.1-0.4v-0.4
		l-0.1-0.6l-0.2-1.4l-0.3-0.6l-0.7-0.3l-0.5-0.3l-1-0.5l-0.5-0.8l-0.1-0.5l0.2-1.3l0.6-1l0.4-0.6l0.4-0.3l0.3-0.3l0.5-0.5l0.3-0.6
		l0.7-0.5l0.7-0.2l0.6-0.2l-0.4-0.6l-0.5-0.9l-0.2-0.8l0.1-0.5l0.2-0.6l0.8-1L476.5,103.5z"/>
	<path class="st1" d="M499.8,93.1l2.3,1.5l0.2,0.4l0.2,0.4l0.2,0.4l0.3,0.3l0.3,0.5l1.8,1.6l0.4,0.3l0.5,0.3l0.7,0.7l0.3,0.8
		l-0.1,0.9l-0.6,0.7l-0.6,0.3l-0.8,0.3l-0.4,0.4l-0.7,1.3l-0.3,1l-0.6,1.3v0.3l-0.3,0.4l-0.4,0.1l-0.3,0.7l-1.1,1.3l-0.5,0.4
		l-0.3,0.1l-0.6,0.4l-0.4,0.1l-0.3,0.1l-0.6-0.1l-0.5-0.1l-0.3-0.3h-0.3l-0.3-0.8l-0.1-0.3l0.1-0.5l0.6-1.1l0.8-1v-1.2l-0.3-0.9
		l-0.3-0.5l-0.4-0.3l-0.6-0.6l-0.6-0.3L495,102l-0.9-0.9l-0.2-0.7v-0.7l0.5-0.9l1.2-0.7l1-0.3l0.2-0.6l0.7-0.6l0.2-0.6l-0.2-1.4
		l0.2-0.3l0.3-0.3l0.5-0.3l0.3-0.1l0.4-0.3h0.3H499.8z"/>
	<path class="st1" d="M529.2,102.4l0.5,0.1l1.5,0.5l0.3,0.3l0.4,0.3l1.1,0.5l0.4,0.3l0.7,0.3l0.4,0.3l1.4,0.7l2.6,1.5l1,0.1l1.2-0.6
		l1.1-0.4l0.9,0.1h0.4l0.5,0.3l0.5,1l-0.1,1l-0.1,0.4l-1,1.3l-1.3,0.9l-0.4,0.2l-0.6,0.4l-0.6,0.3l-0.7,0.5l-0.7,0.3l-0.1,0.6
		l-0.3,0.3l-0.1,0.7l0.1,0.5l0.1,0.8l-0.3,0.9l-0.3,0.4l-0.6,0.3l-1,0.1l-0.6-0.1l-1.7-0.5l-0.4-0.5l-0.3-0.1l-0.5-0.4l-2-1.4
		l-1.3-1l-0.8-0.7l-0.8-0.6l-0.3-0.4l-0.3-0.1l-1.2-1.1l0.5,1.2l0.2,0.9v0.4v1.2l-0.1,0.6l-0.1,0.6v1v0.6l0.1,1l0.3,0.8l1,0.7
		l0.5,0.1l0.4,0.1l0.3,0.2h0.7l1.6,0.6l0.6,0.1l2,0.4h0.7l1.2,0.6l1.3,0.3l0.6,0.5l0.7,0.2l0.4,0.1l0.6,0.2l0.8,0.4l1,1.3l0.3,1.3
		l-0.2,0.6l0.3,0.6l-0.2,0.9l-0.1,1.1l0.1,0.3l0.1,1.6l-0.3,0.8v0.8v0.3l-0.3,1.7l0.1,0.4l-0.1,0.4v0.3v1.4l0.1,0.4v1l0.2,0.6
		l0.7,0.5l0.2,0.5v0.3l-0.4,0.9l-0.8,0.8h-0.5l-1.4,0.2l-1.1,0.5l-0.7,0.1h-0.9l-1.2,0.4l-0.9,0.5l-1-0.3l-0.3,0.7l-0.7,0.4
		l-1.9,0.6l-0.4,0.3l-0.9,1.3l0.3,1.3v0.3l-0.3,1l-0.8,0.8l-1.1,0.3l-0.7-0.1l-0.6,0.1l-2.1-0.8l-0.7-0.6l-0.9-0.4l-0.3-0.3
		l-0.7-0.5l-0.3-0.2l-0.9-0.8l-0.3-0.3l-0.5-0.4l-0.5-0.4l-1.3-0.8l-1-0.3h-1.5l-1.3,1l-0.3,1l-0.2,0.7l0.1,1l0.2,0.3l0.3,0.3
		l0.7,0.3l0.4-0.1l0.8-0.3l0.3-0.3h0.8l0.8,0.3l0.5,0.5l0.3,0.4l0.2,0.3l0.1,1.1l-0.1,0.3l-0.2,0.6l-0.5,0.9l-0.8,0.8l-1.6,0.3h-0.6
		h-1l-0.5-0.3l-0.4-0.1l-0.3,0.1l-0.4-0.3l-0.7-0.5l-1.3-1.2l-0.3-0.3l-0.3-0.5l-0.6-1.4v-0.5l-0.3-1.5l-0.1-1v-0.6l0.3-1.2l0.3-1
		l0.3-0.6l0.2-0.3l0.7-1.4l0.3-0.3l0.6-0.3l1.1-0.9l1.3-0.8l0.7-0.5l0.3-0.3l0.5-0.7l0.3-0.7l0.1-0.5l-0.1-0.7l0.3-0.9l1.2-1.2
		l0.9-0.2l1.9,0.2l0.6,0.3l1.1,0.6l1.2,0.7l1,0.7l0.3,0.4l0.9,0.6l0.8-0.3l0.7,0.8l2.1,1.3l1.2,0.4l1,0.1l0.6-0.1l0.3-0.3l0.3-0.6
		l-1.3-1.6l-0.6-1.3l-0.1-0.4l-0.1-0.8l0.2-2.2l-0.2-1.3l-0.5-0.3l-1.1-0.4l-0.6-0.2l-0.6-0.3l-0.7-0.2l-0.7-0.2l-0.3-0.4l-1.9-0.3
		h-0.6l-1-0.4l-1.6-0.6l-0.5-0.3l-0.7-0.2l-1.7-1l-0.5-0.6l-1-1.2L516,124l-0.2-1.9l-0.1-1V120v-1.1l0.3-0.9l0.1-0.4l0.1-0.5
		l-0.1-0.7l0.2-0.7l-0.3-0.4l0.1-0.6l0.3-0.7l-0.3-0.6l-0.3-1.3l-1.1-0.8l-0.2-0.4l0.1-1l0.3-0.6l0.6-0.4l0.8-0.3h0.3l0.4,0.1
		l0.9-0.2l0.3-0.1l1.3-0.3l1,0.3l0.6-0.2l0.5-0.3l1.1-0.3h0.7l1.1-0.2l0.4-0.2l0.3-0.1l0.7-0.3l0.3-0.3l0.2-0.6l-0.2-0.9l0.1-0.4
		l0.2-0.5l1-1l0.7-0.3L529.2,102.4z"/>
	<path class="st1" d="M608,90.1l0.8-0.1h0.6l0.6,0.3l1.3,0.6l0.3,1l0.1,0.8l-0.1,1.4l-0.2,0.5l-0.1,0.4l-0.3,0.3l-0.5,0.6l-0.3,0.2
		l-1.5,1.2l-2.8,0.8l-0.5-0.1l-0.5-0.1l-0.3,0.4l-0.8,0.1l-1.3,0.1l-0.4,0.1l-0.1,1l-1.1,0.3l-1.1-0.3l-0.8,0.3h-1l-0.5-0.1
		l-1.3-0.2h-1.2h-0.8l-0.6,0.2H593l-3,0.2l-1,0.4l-0.5,0.4l-0.3,0.3l-0.2,0.5l-0.2,0.5l-0.3,1l-0.3,1.9v0.5v1l0.2,0.6l-0.1,0.9
		l-0.1,0.6l-0.1,0.6l-0.1,0.7v1.1l-0.1,0.4l0.3,1l-0.2,0.4l0.4,0.3l0.2-0.8l0.9-1l0.7-1l1.9-1.6l0.9-0.5l0.6-0.5l0.8-0.4l1.3-0.3
		l0.4-0.1l1-0.3l0.6-0.3h0.8l0.5-0.1l1.6-0.4l1.3,0.1l1,0.2l0.3-0.1l1.3,0.3l0.5,0.3l1,0.3l0.6-0.1l0.9,0.3l0.4,0.3l0.5,0.1l0.8,0.1
		l0.4,0.4l0.6,0.3l0.3,0.6l1,0.7l0.6,0.5l0.4,0.4l0.8,1.3l0.3,0.3l0.6,0.9l-0.1,0.7l0.5,0.5l0.3,0.4l1,1.1l0.2,0.5v0.6l0.4,0.7
		l0.3,1.3l0.6,1.9v0.9l-0.1,0.3l-0.1,0.8l0.1,2.4v1.4v0.7l-0.1,1.4l-0.1,1l-0.2,0.5l-0.1,0.4l-1,3l-0.1,0.5l-0.6,1l-0.5,1.4
		l-0.3,0.9l-0.3,0.3l0.5,0.3l0.1,0.6l-0.3,0.5l-0.3,0.6v0.3l-0.4,0.8l-0.4,0.4l-1.3,2.8l-0.6,0.7l-0.3,0.9l-0.3,0.7l-0.3,0.6l-0.8,1
		l-0.2,0.5l-0.2,0.3l-0.2,0.7v0.6l-0.3,1v0.5l-0.2,0.9l-0.1,2.8l0.3,0.5l0.5,1.2l0.3,0.3l1.1,1.1l1.1,0.5l-0.5-0.3l1,0.3l0.6-0.2
		l0.3-0.6l-0.8-1v-0.5l-0.1-0.9l0.1-0.3l0.3-1.2l0.5-0.9l0.5-0.1l1-0.5l0.6-0.1l1.5-0.1l0.5,0.3l1,0.8l0.8,1.3l0.2,1.3l0.1,0.8
		l-0.1,0.4l-0.2,0.8v0.5l-1.3,2.2l-0.6,0.6l-2,1l-1.8,0.5l-0.4,0.1l-1.5-0.1l-1.2-0.3l-2.3-0.8l-1-0.5l-0.8-0.6l-0.6-0.5l-0.4-0.4
		l-0.2-0.3l-0.2-0.4l-0.3-0.3l-0.6-0.6l-0.1-0.4l-0.2-0.3l-0.1-0.6l-0.4-0.6l-0.2-1.1l-0.6-0.3v-0.5l-0.4-1.7v-0.3l-0.2-1.1v-0.3
		l-0.2-2l-0.2-0.7l-0.3-0.7l-0.1-0.3l0.3-0.9l-0.3-0.7l0.1-0.8l0.1-0.6l-0.2-0.9l0.1-1l0.3-2.6l0.6-0.7l-0.3-0.7l0.5-0.8l-0.3-0.6
		l0.3-0.8l0.1-0.4v-0.4l0.1-0.6l-0.3-0.1l-0.4-0.4l-0.3-0.6l-0.2-0.7v-1l0.1-0.7l0.2-0.7V130l0.1-0.4l-0.1-0.6l0.2-1.1l-0.3-1
		l0.5-0.8V125l0.1-0.9l-0.1-1.2l0.2-0.3l0.5-0.6l-0.3-0.2l-0.3-0.5v-0.5v-0.3l-0.2-0.9v-0.3l-0.2-1.7l-0.1-0.3l-0.7-0.5v-0.4
		l-0.6-1.4l-0.3-0.4l-0.9-0.2l-0.1-0.5h-0.3l-0.5-0.3l-1.2-0.1l-1.1,0.1l-0.7,0.4l-1,0.3l-0.2,0.3l-0.6-0.1l-1,0.8l-0.4,1l-0.4,0.3
		l-0.4,0.2l-0.5,0.5l-0.4,0.3l0.3,0.5l-0.4,0.5l0.1,0.3l-0.4,0.6l-0.4,1l-0.3,0.6l0.1,0.9l-0.3,0.6l-0.1,0.4v0.4l-0.2,1.4v1.1
		l0.2,0.9l0.1,1.5l-0.3,0.8v1.2l-0.3,0.6l-0.2,1.3l0.1,0.8l0.3,0.3v0.9h0.3l0.3,0.3l0.1,0.6v0.3v0.6l-0.1,0.6l-0.8,1.7l0.6,0.3
		l0.4,2.3l0.4,1.6l0.6,1.2l1.5,1.7l0.7,0.5l0.6-0.2l0.9,0.5l1.1,0.3l1.2,0.1l1.2,0.3l0.6,0.7l0.3,1.4l-0.7,1.2l-0.3,0.5l-0.6,0.1
		l-1,0.4l-0.4,0.1h-0.5l-0.6,0.6l-0.3-0.4l-0.6,0.1h-1.1l-0.7-0.2l-0.7,0.2l-0.9-0.1h-0.4l-0.7-0.3l-1.1-0.2l-0.6-0.3l-0.5-0.3
		l-0.7-0.1l-0.6,0.5l-1.6-0.3l-1.3-0.3l-1.3-0.3l-1.6-0.2h-1.4l-0.3-0.1l-1.2-0.2l-0.6,0.1l-0.3-0.1l-1.2,0.1h-0.7l-0.9,0.3
		l-0.5,0.2l-0.9,0.4l-0.4,0.3l-0.3,0.5l-0.6,0.4l-0.3,0.7l-1,0.5h-1.3l-0.7-0.4l-0.7-0.5l-0.4-0.5l-0.3-1.3l0.2-0.8v-0.3l0.7-1.5
		l0.6-0.7l0.7-0.5l0.5-0.5l0.9-0.4l0.5-0.1l0.6-0.4l0.3-0.2l0.5-0.3l0.4-0.2l0.3-0.5l1-0.6l0.3-0.6l0.2-0.4l0.1-0.4l0.2-0.5l0.3-0.7
		v-2.6l0.5-0.3l0.1-0.5l0.6-1l-0.4-1.5l-0.2-0.5l0.1-1.5l0.1-0.5l0.2-0.3l0.1-0.6l-0.2-0.6l0.1-0.6v-0.8l0.2-0.6l-0.3-0.5l-0.1-0.3
		l-0.2-0.7v-0.5l0.3-2.7l0.2-0.5l0.2-0.7l0.1-0.3l-0.1-1v-1.6l0.1-1.1l-0.1-0.3v-0.5l0.1-0.8v-0.4v-0.6v-0.5l0.2-0.4l-0.3-0.5
		l0.2-0.5v-0.8l-0.1-0.3v-1.1l0.8-1l-0.8,0.2l-0.3-0.2l-0.3-0.4l-0.1-0.3l0.1-0.6l0.3-0.3l0.1-0.6l-0.3-1.9l0.2-0.5l0.4-0.9
		l-0.4-0.8l0.2-1.5l-0.2-0.9v-0.4l-0.4-1.3l-0.3-0.6l-0.7-0.7l-0.9-0.3l-0.3-0.2l-1-0.5l-1.1-0.6l-0.3-0.6l-0.4-0.3l-0.1-0.3
		l0.3-1.5l0.2-0.3l1.2-0.9l0.8-0.1L571,94l0.6,0.2l0.6,0.2l1.8,0.4l5,0.1l0.6,0.1l0.3-0.3l0.9,0.1l0.6,0.3l0.7,0.1l0.4,0.1h0.7
		l1.9-0.2l0.7-0.2l0.4,0.2h0.6l0.6,0.1l0.1,0.5l0.3-0.5l3.4-0.3l0.4,0.3h2.5l0.6-0.1l0.7-0.1h0.3l0.4-0.1h0.3l0.6,0.4l0.7,0.1
		l0.6-0.5l1-0.2l0.8-0.2l1.7-0.4l1.2-0.1l1.1-0.5l0.8-0.1l0.3-0.3l0.5-1.3l1-1.2L608,90.1z"/>
	<path class="st1" d="M637.3,102.9h0.5l1,0.1l2,1l0.4,0.7l0.8,0.3l2.8,2.1l0.7,0.3l1.3,0.7l0.4,0.2l0.5,0.2l0.5,0.2l1.3,0.5l1.1,0.3
		l1.4,1l0.2,1l-0.1,0.5l-0.3,0.5l-0.3,0.3l-0.3,1.3l0.1,0.5v0.6l-0.3,1.2l-0.2,1.2l0.3,1.3l-0.3,1v0.4l0.1,0.6l-0.1,0.4v1.2
		l-0.2,0.4v0.8l0.1,0.6l-0.1,1v0.7l0.2,0.4l0.1,0.7l-0.1,0.5l-0.2,0.8l0.3,1v0.7l-0.1,0.4l-0.3,1.7l-0.2,0.3l0.4,0.3l-0.2,0.3
		l0.3,2.3l0.2,1.2l-0.2,0.3l0.1,0.6l-0.1,0.4l0.3,0.8l0.8,0.3l0.7,1v0.3l-0.4,0.7l-0.3,0.5l-0.3,0.2l-1.2,0.3l-0.3,0.2l-0.4,0.3
		h-0.6l-0.6,0.1l-0.6,0.3l-0.7,0.2l-1.7,0.8l-0.9,0.3l-1.6,0.6l-0.3,0.2l-1.9,0.9l-0.7,0.6l-0.3,0.6l0.1,0.7l0.4,0.8l0.2,1l-0.3,0.7
		l-1.5,1l-1.1-0.1l-0.4-0.2l-0.3-0.1l-0.3-0.3l-1.2-0.7l-1-0.2l-0.2-0.3l-0.7-0.1l-0.3-0.2l-0.3-0.3l-0.6-0.3l-0.3-0.4l-1.4-0.8
		l-1.1-1l-2.3-1l-0.6-0.3l-0.5-0.3l-0.4-0.2h-0.3l-1.1-0.5l-0.6-0.2l-0.6-0.8l0.3-0.9l1.1-1.3l0.2-0.5l0.3-0.8l0.3-1l0.1-1l0.1-0.3
		l0.3-2l0.1-2l0.4-0.3l-0.5-0.5V131v-1.1v-0.4l-0.1-0.5l0.2-0.8l-0.1-0.5l-0.1-1.2l0.3-1.2v-0.5l-0.3-0.6l0.1-0.6l0.3-0.9l-0.3-0.3
		l-0.1-0.8v-0.3v-0.8l0.2-0.4l-0.2-0.5l-0.1-0.6l0.1-1.3l-0.1-0.7l-0.1-1.5l-0.5-1.2l-0.5-0.3l-0.5-0.6l-0.2-0.7l0.1-0.3l0.3-0.4
		l0.2-0.3l1-0.5l0.9-0.3l0.8-0.1l1.2-0.3l0.5-0.1l1.2-0.3l1.2-0.4l1.9-0.6l0.8-0.7l1.1-0.6l0.8-0.7l0.4-0.8l0.2-0.6l-0.1-1l0.1-0.3
		l0.4-0.6l0.7-0.5L637.3,102.9z M635.4,112l-0.7,0.3v0.5l0.1,0.4l0.3,0.7v1.7l0.1,1.6v1.1l0.1,0.4v0.3v0.4v0.9v0.5v0.4l-0.1,0.7
		l0.2,0.6v1.4l0.1,0.6l0.1,0.7l-0.2,0.8l-0.2,0.9l0.6,1.3v0.3l-0.4,1.1l0.1,0.6l-0.1,0.7l-0.3,0.7l0.2,0.3l-0.2,0.9l-0.2,1.7
		l-0.2,1.1l-0.3,0.8l-0.5,1l-0.2,0.4l0.4,0.4l1.3,0.5l0.6,0.1h0.3l1.1,0.3h0.8l0.4,0.1l1.8,0.3h0.5l0.9-0.1l0.2-0.7v-0.3l-1-1.1
		l-0.5-0.9l-0.3-1.7l0.1-0.6l0.2-2.2l0.1-0.9v-0.5l-0.1-0.3l0.1-0.8l-0.2-0.4l0.1-1.5l0.6-0.6l0.1-0.3l-0.5-1l0.1-0.8l0.4-1
		l-0.6-0.7v-0.4l-0.2-1.1v-1.7l-0.2-0.7l0.2-0.8v-1l0.2-0.6l-0.1-0.8l0.2-0.7l0.3-0.7v-0.7l-1.3,0.3l-0.6-0.2l-0.6-0.2l-0.7-0.4
		l-0.6-0.5l-0.5-0.5l-1.2-0.3L635.4,112z"/>
	<path class="st1" d="M678.7,103.1l1,0.1h0.8l0.5,0.1l0.6,0.3l0.8,0.1l0.5,0.1l0.7,0.6l1.1,0.7l0.5,0.3l0.6,0.8l0.3,0.4l0.4,0.6
		l1.1,1.2l0.7,0.2l0.3-0.2l0.3-0.1l1-0.7l0.8-0.7l0.5-0.9l-0.2-0.6l0.5-1.1l0.5-0.4l0.8-0.3l1.8,0.5h0.4l1,0.5l0.2,0.3l0.3,0.2
		l0.7,0.3l0.8,0.6l0.3,0.1l0.7,0.1l0.4,0.3l1.3,0.5l0.9,0.4l0.3,0.2l0.6,0.3l0.9,0.1l0.7,0.2l0.5,0.1l0.6,0.4l0.7,0.2l0.3,0.5
		l0.3,0.5v0.5l-0.9,1.7l-0.6,0.3l-0.3,1.4l-0.4,0.4l-0.2,0.6l0.1,0.5l-0.3,1v0.3l-0.1,0.9l-0.1,3.2l-0.4,0.4l0.4,0.6l-0.3,1.7
		l-0.1,0.9l-0.1,0.6l-0.3,0.4l0.1,1.5l0.3,1.4v0.6l0.3,1l-0.1,0.9v0.6l-0.3,1.7l0.1,0.7l0.1,0.5l-0.1,0.3l0.3,1.2l-0.3,0.5l0.3,0.3
		l0.2,0.3l0.1,1.2l0.3,0.7l1.9,1.1l0.8,0.8l-0.1,0.9l-0.5,0.9l-0.9,1.1l-0.7,0.1l-0.5,0.9l-1,1l-0.3,0.3l-0.3,1.4l0.2,0.7l0.4,0.8
		l0.3,0.5l-0.3,1l-0.6,0.7h-0.4l-1.1-0.1l-0.5-0.2l-0.8-0.3l-0.8-0.7l-0.6-0.3l-0.6-0.8l-0.7-0.4l0.3-0.4l-0.5-1l-0.7,0.6l-0.6-0.8
		l-0.5-0.5l-2.3-0.9l-0.3-0.2l-0.3-0.1l-0.2-0.6l-0.3-0.3l-0.2-1l0.3-0.8l1-0.6l0.3-0.2l0.6-1.3l0.2-1.3v-2.3l0.4-0.1l-0.6-0.3V135
		l0.2-0.8v-0.6l-0.3-0.5l-0.3-1.1l-0.1-0.3v-0.5l-0.2-0.3v-0.8l0.3-0.5v-0.7l-0.2-0.4l-0.1-0.3v-1l0.5-0.8l0.1-0.6l-0.3-0.5V125
		l0.3-0.8l-0.2-0.6l-0.1-1l0.3-0.7v-0.3l0.1-0.5l0.1-1.5l0.1-0.4l0.6-1.5l0.4-1.6l0.7-0.7l-0.6-0.6l-0.4-0.3l-1.2-0.6l-0.6-0.3
		l-1.4-0.6l-0.4-0.3l-1.9-0.3l-1,0.4l-0.5,0.7v0.5l0.4,1.6l-0.3,0.7v0.4v0.6l-0.5,0.9l-0.3,0.7l0.1,0.9l0.6,1.1l0.1,0.9l0.1,0.5
		l0.1,1.2l-0.2,1l0.1,1.4v0.6v1v1.1l-0.2,0.8l0.2,0.7v0.6v2l-0.2,0.8l0.1,0.5l-0.2,0.5l0.3,2.1v0.4l0.2,0.9L688,139h0.3l0.5-0.1
		l1,0.4l0.7,0.7l0.1,0.5l-0.2,0.8l-0.4,0.6l-0.5,0.7l-1.6,1.3l-0.5,0.5l-0.3,0.3l-0.7,1l-0.3,1.2l-0.1,0.3l0.4,1.2l0.3,1l-0.3,1
		l-0.5,0.5l-1,0.2l-0.8-0.1l-1.8-0.9l-1-0.7l-0.3-0.3l-0.2-0.4l-0.8-0.6l-1-0.9l-0.8-0.8l-1.1-0.8l-0.8-0.5l-1-0.3l-0.4-0.8l-0.2-1
		l0.7-0.6l0.7-0.8l0.2-0.5l0.3-0.7l0.2-0.4l0.3-1.3l0.1-0.4l0.2-0.6v-0.3l0.1-1.1l-0.2-0.3l0.1-1.4l0.2-0.6v-1.2v-0.6v-0.6l-0.3-0.4
		l0.3-0.7l-0.1-0.3l-0.3-1.9l0.1-0.9l0.2-2.9l-0.1-1.1l-0.1-1.3l0.4-1.4l-0.1-0.5v-1l-0.3-1.1l-0.1-1.8l-0.1-0.7l-0.2-0.4l-0.3-0.7
		l-1-0.5l-0.8-0.3l-1.9-0.9l-0.5,0.1h-0.6l-0.4,0.3l-0.4,0.6l-0.1,0.7v0.4l-0.2,1v0.4l-0.1,0.3v0.6l0.1,1.8l-0.1,0.3l0.3,1.2v0.8
		v0.3l0.2,0.7l-0.6,1.9l0.2,0.7l-0.2,0.5l0.1,0.5v1.4l0.1,0.5l-0.1,1.9l-0.1,0.6v0.5l-0.1,0.6l0.1,0.6l0.1,0.5v0.6v0.4v1.7v1.9
		l0.3,1.1l0.4,0.6l0.4,0.1l1.2,0.1l0.3,0.5l0.5,0.3l0.2,0.4l0.1,0.4l-0.3,1l-0.4,0.6l-0.7,0.8l-0.5,0.3l-0.4,0.4l-0.4,0.2l-0.8,0.6
		l-1,1.2l-0.3,1.3l0.5,1l0.2,1.4l-0.5,1l-0.8,0.6l-0.6,0.1l-0.4-0.2l-0.3-0.1l-1-0.3l-0.7-0.7l-0.7-0.4l-0.5-0.4l-0.6-0.7l-0.8-0.6
		l-0.3-0.2l-0.5-0.5l-1.9-1.3l-0.6-0.3l-1.3-0.7l-0.6-0.1l-0.5-0.6l-0.2-1l0.1-0.5l0.3-0.4l0.6-0.4l0.9-0.5l0.3-0.4l0.6-1.2l0.4-1.2
		l0.2-0.4l-0.3-0.3V136l0.1-0.5l0.1-0.9v-0.8l0.2-1v-0.5l0.1-1.8l0.1-0.9l0.1,0.3l-0.4-1.2l-0.1-0.6l0.5-0.5l0.5,0.2v-1l-0.7-0.5
		l-0.2-0.6l-0.2-1l0.3-1.3l-0.1-1l0.2-1.8l-0.1-0.6l-0.1-0.7l-0.3-1.2l0.2-0.5l-0.3-0.5v-1.4l-0.3-0.3l-0.3-0.4l-0.7-0.1l-1.3-0.1
		l-0.8-0.4l-0.6-0.8l0.2-1.6l0.4-0.3l0.3-0.6l1.9-1.6l0.4-0.6l0.4-0.6l0.3-0.7l0.3-1l-0.3-0.7l-0.1-1.1l0.1-0.4l0.4-0.6l0.8-0.3h1.7
		l1.6,0.2l1.3,0.4l1.5,0.6l0.3,0.2l0.5,0.6l0.9,0.6l0.4,0.8l0.4,0.5l0.2,0.3l0.5,0.7l0.4,0.2l0.8,0.5l0.4,0.2h1l1.4-0.3l0.8-0.4
		l0.3-0.3l0.7-0.6l0.1-0.3l0.6-0.8v-0.3l-0.1-1l0.1-0.3l0.5-0.9L678.7,103.1z"/>
	<path class="st1" d="M729.3,102.8h1.3l0.8,0.5l0.2,0.6l1.2,1.9l0.9,1.5l0.4,1l0.6,1l0.3,0.8l0.2,0.5l-0.1,0.3l0.1,0.7l0.2,0.4
		l0.2,0.7l0.6,0.8l1,0.9l0.3,0.6l0.2,0.9l0.3,0.9l0.4,0.7l0.4,1.3l1.2,1l0.3,0.9l-0.2,0.8l-0.7,0.8l-0.3,0.6l-2.1,1.3l-1.4,0.9
		l-1,0.4l-0.4,0.3l-0.6,0.6l-0.4,0.2l-1.1,0.3l-0.7,0.5l-0.5,0.2l-1.5,0.9h-0.3l-0.6,0.5l-0.3,0.1l-1.2,1.2l-0.5,0.8l-0.1,0.3v0.4
		l-0.1,0.5l-0.7,0.7l-1.3-0.1l0.1,1l-0.1,0.7l-0.3,0.5l-0.3,0.8l-0.4,0.5l-0.2,0.5l0.1,0.8l0.3,0.6l0.4,0.1l0.4,0.2h0.5h1.1l0.8,0.4
		l1.2,0.1l1,0.1l0.5,0.1h0.3l1.2,0.2l1.2,0.1l1.2-0.2l0.5-0.3l0.2-0.4l0.2-0.4l-0.1-0.3v-0.3l-0.3-0.5l-0.3-0.6l-0.3-1.1l0.3-1.1
		l0.3-0.4l0.3-0.6l0.9-0.4l0.5-0.1h0.6l0.9,0.3l0.5,0.2l0.6,0.7l0.3,0.8l0.2,2.3l-0.2,0.4l-0.2,1l-0.2,1.1l-0.3,0.7l-0.5,0.3
		l-0.3,0.6l-0.1,0.5l-0.8,0.9l-0.6,0.6l-3.8,3.1l-0.3,0.6l-0.2,1.1l0.3,0.5l0.1,0.8l-0.2,0.7l-0.5,0.7l-0.5,0.1l-1.4,0.3l-0.6-0.2
		l-1.1-0.2l-0.6-0.2l-0.8-0.3l-0.5-0.3l-0.6-0.1l-0.5-0.1l-0.7-0.5l-0.8-0.2L721,148l-0.5-0.2l-0.8-0.4l-0.9-0.5l-0.8-0.3l-1.3-0.8
		l-1.2-0.4l-1.1-0.5l-0.5-0.1h-1.3l-0.5-0.3l-0.6-0.6l-0.3-0.6l0.1-0.3l0.2-0.6l0.4-0.6l1-1l0.5-0.8l0.1-0.8l0.2-0.7l0.2-1.2v-0.6
		l-0.1-1v-0.6l-0.3-0.3l-0.1-0.8l0.5-0.3l-0.3-0.6l0.2-0.9l-0.1-0.5l-0.4-1l0.4-0.4l0.1-0.3v-0.3l-0.1-1.4l0.1-0.3v-2.9l-0.1-0.6
		v-0.8l-0.1-1.2l0.1-0.8l-0.1-1l0.1-0.6l0.1-0.4l-0.2-0.3l-0.2-1.6l-0.1-1l0.1-0.7l-0.3-1l-0.3-0.4l-1-0.7l-0.3-0.3l-0.1-0.4
		l0.1-0.8l0.6-0.8l1.2-0.5l1.9-0.3l1-0.3l0.3-0.2l0.5-0.1l3.7-1.1l0.6-0.3h0.4l0.3-0.3l0.3-0.4l0.6,0.2l0.9-0.4l0.6-0.5l1.3-0.8
		l0.3-0.2l1.7-1.6l0.3-0.6l0.1-0.6l0.6-0.6L729.3,102.8z M723.5,111.5l-0.3,0.7v0.7l0.2,0.5l0.2,0.7l0.2,1.2l0.1,0.4l0.2,0.3
		l0.1,1.9l0.1,0.3l0.2,0.6l0.2,0.9l-0.3,0.6l0.3,0.8v0.5l-0.2,0.5l-0.3,0.9l0.1,0.3l0.1,0.3l-0.1,0.7l0.1,0.4v0.6l0.1,0.4l-0.2,0.8
		l0.3,0.4l1.2-1.5l1.3-0.4l0.2-0.4l0.3-0.2l0.3-0.3l0.5-0.2l0.7-1.3l0.2-0.3l-0.2-0.5l-0.4-0.8l-0.2-0.4l-0.1-0.6l-0.6-1.3l-1.3-3.2
		l-0.3-0.3l-0.9-1.7l-0.2-0.6l-1.1-1.9L723.5,111.5z"/>
	<path class="st1" d="M760.7,103.1l0.6,0.3l0.9,1l0.1,0.7l-0.3,1.2l0.2,0.8l0.6,0.6l0.3,0.7l0.3,0.3l0.4,0.5l1.3,0.5l1.8,0.7h0.9
		l0.7,0.3l2,0.3h2.9l0.4,0.1l1.2,0.1l0.7,0.4l0.3,0.6l-0.1,0.6l0.1,0.5l-0.3,0.5l-0.4,0.3l-0.3,0.3l-0.5,1.1l-0.3,1.7l-0.2,0.8v0.5
		v2.8l-0.3,0.5l-0.1,0.4l0.3,0.6l-0.3,1l-0.1,0.7v0.5l0.2,1.3v0.3l0.2,0.3l-0.1,0.8l-0.1,1.7l0.2,1l-0.1,2.3v1.7l0.2,3.1l0.1,0.7
		v0.8l0.5,2l0.3,0.4l0.3,0.4l0.6,0.1l0.3,0.5l0.3,0.6v0.4l-0.2,0.7l-0.4,0.5l-0.4,0.5h-0.6l-1,0.3l-0.6,0.3l-0.5,0.3l-0.3,0.4
		l-2.1,1.1l-0.6,0.4l-0.3,0.5l-0.7,0.7l-1,0.6l-0.6,0.5l-1,0.4l-1,0.3l-0.6,0.1l-0.5-0.1l-0.9-0.2l-0.6-0.7l-0.3-0.7l0.1-1.3
		l0.4-0.5l0.6-0.6l0.1-0.9l-0.2-0.6l-0.3-0.4l-0.2-0.3l-1.9-0.8l-0.9,0.1l-0.7,0.2l-0.6,0.5l-0.6,1l-0.4,0.1l-0.2,0.8l-0.2,0.7v0.6
		v0.6l-0.2,1v1v0.7l-0.1,1.4l0.2,2l0.2,0.3v0.8l0.3,1.7l0.3,0.8l0.2,0.8l0.5,0.7l1.1,0.9l0.7,0.8l0.3,0.8l-0.3,1.2l-1.1,0.6
		l-0.5,0.3l-1.3-0.1H757l-0.9-0.3l-0.6-0.1l-1-0.7l-0.7-0.5l-0.3-0.3l-0.5-0.2l-1.4-1.8l-0.8-0.3l-0.3,0.1l-0.3,0.9l-0.2,0.5
		l-0.9,2.2l-1,1.4l-0.5,0.3l-0.3,0.3L747,166l-0.3,0.3l-1.3,0.3l-0.4,0.1h-1l-0.5-0.2l-0.5-0.1l-0.3-0.2l-1-1.1l-0.1-1.3l0.4-1.3
		l0.7-1l0.4-0.2l0.3-0.3l0.6-0.5l1-0.3l0.6-0.6l0.3-0.8l0.6-1.9l0.2-1.1l0.1-2.2l0.3-1.6l0.2-2.3l-0.2-0.9l-0.1-0.9l0.1-0.3
		l-0.2-0.9l0.3-0.9l0.1-0.8l0.2-0.8v-0.3l-0.2-0.6l-0.1-2.4v-0.5l-0.3-1.8l-0.1-0.6l0.1-0.9l0.1-0.5l0.2-0.3l0.1-1.7l0.1-0.5
		L747,132l0.1-0.6l0.5-0.1l-0.3-0.2l-0.4-1v-1l0.1-0.4l0.1-0.4l-0.1-1.8l0.1-0.9l-0.1-2l0.2-0.5l-0.1-0.6v-0.5l0.2-0.8l-0.1-1.9
		l-0.1-1.8l0.1-0.8l-0.2-1.7l-0.4-1.8l-0.3-0.4l-0.2-0.3l-0.3-0.3l-1.1-0.8l-0.4-1.3l0.2-0.6l0.5-0.6l0.3-0.2l1.5-0.3l1.3-0.2
		l1.6-0.4l1.7-0.8l1.2-0.7l0.3-0.1l1-0.7l0.4-0.3l1.3-0.6l0.6-0.4l1.5-0.6l0.3-0.2h0.4l0.8-0.2H760.7z M763.5,112.5h-0.6l-0.6,0.2
		l-0.6,0.1l-0.3,0.4l-0.6,0.2l-0.4,0.1l-0.3,0.2l-0.8,0.2h-0.6l-0.4,0.3l-0.4,0.1l-0.9,0.3l0.3,1.2v0.3l0.2,4.7v1l0.1,1.2l0.3,0.4
		l-0.1,0.7l-0.3,0.6l0.1,0.7l0.2,0.3l0.2,0.6l-0.3,0.7v0.8l0.2,0.5v0.8l0.1,0.5l0.1,0.5l0.3,4.2v0.9l-0.2,1.5l-0.3,1.2l-0.1,0.5
		l-0.2,0.3l-0.2,0.4l0.5,0.9h1.2l0.6-0.1l0.4-0.2l1.2-0.3l0.7-0.1l0.5-0.1h0.4h0.5l0.5-0.2l1,0.2l0.3,0.1l0.7,0.5h0.5v-0.3l-0.1-0.7
		l-1-1.4l-0.4-0.5l-0.7-1.6l-0.2-0.6l0.1-0.3l-0.3-0.5l-0.2-0.7l0.2-2.2l0.3-0.1l0.4-0.2l-0.7-0.9l-0.2-0.3l0.2-2.1l-0.2-0.3
		l-0.1-3.5l0.3-1.6v-0.4v-0.8l0.1-0.6l-0.1-0.4l0.2-4.2l0.3-1l0.2-0.6l-0.1-0.3L763.5,112.5z"/>
	<path class="st1" d="M796.1,102.9h0.5l1.2,0.3l1.3,0.6l1.6,1l1.1,1l0.6,0.3l0.5,0.7l0.6,0.1l0.3,0.5l0.6,0.5l1.6,0.5l0.4,0.3
		l0.6,0.2l0.3-0.1h0.6l0.9,0.2l0.8,0.2h0.7l0.5,0.4l0.3,0.6v0.7l-0.3,0.8l-0.7,0.8l-0.4,1.3l-0.1,0.4l-0.1,0.6v2.9l-0.2,1.4l0.1,0.6
		l-0.1,0.8l0.2,1.4l-0.1,2l0.1,0.6v2.2l-0.3,0.7l0.1,1.8v0.8l0.1,0.4l0.4,0.4l0.1,0.3v1.2l-0.1,1l0.2,0.6l0.2,0.4v1.1l0.1,0.6
		l0.1,1.7l0.3,0.4l0.5,0.2h0.4l0.4,0.1h0.4h0.6l0.9,0.7v1.2l-0.1,0.3l-0.3,0.7l-0.5,0.8l-0.7,0.9l-0.3-0.1l-0.3,0.4l-0.3,0.4
		l-0.4,0.4l-0.5,0.4l-0.1,0.3l-0.3,0.3l-0.6,0.4l-0.4,0.5l-0.1,0.7l0.1,0.3l0.3,0.3l0.5,1v-0.3l-0.3,1.6l-0.6,0.7l-0.5,0.2l-1.2,0.1
		l-1.2-0.3l-1.2-0.3l-0.6-0.3l-1.1-0.5v-0.3l-2.1-1.4l-0.4-0.6l-0.6-0.4l-0.9-0.8l-0.9-0.6l-0.4-0.6l-0.5-0.4l-0.8-0.3l-0.6,0.1
		l-1,0.6l-0.2,0.5l-0.2,1.9l1,1l0.3,1l-0.3,1l-1.4,0.5l-1,0.2l-0.9-0.1l-1.6-0.6l-1.2-0.5l-0.2-0.3l-0.6-0.7L788,148l-0.9-0.6
		l-0.4-0.4l-0.5-0.2l-0.3-0.4l-1.2-0.7l-0.4-0.2h-1.4l-0.3-0.2H782l-0.6-0.5l-0.2-0.3l-0.3-0.6l0.3-1l0.5-0.6l0.4-0.3l0.7-0.7
		l0.5-0.8l0.3-0.7v-0.3v-0.6l0.3-0.9v-0.8l-0.2-0.5l-0.1-1.1l0.2-0.5l0.2-0.4v-0.7l-0.2-0.4l-0.1-1.1l0.1-0.3l0.1-0.4l0.1-0.6
		l-0.1-2.7l-0.7-1.2v-0.8l0.4-0.6l0.6-0.5l0.3-0.2l1.3-0.2l1.4-0.2l0.4,0.1l1.2-0.2l0.3-0.2l0.5-0.1l0.6-0.1h1.1h0.4l0.3-0.1
		l1.4-0.6l0.4-0.3h1.1l0.9-0.6l0.9-0.6l0.7-0.9l0.3-1.3l0.3-0.7v-0.4v-0.4l0.6-1.1l-0.1-1.2l-0.2-0.8l-0.4-0.8l-1.4-1.5l-0.6-0.3
		l-0.5-0.3h-0.8l-1.2-0.7l-0.9-0.3h-0.7l-1.5,0.3l-1.5,1.2l-0.3,0.6v0.9v0.9l0.3,0.6l0.4,0.2l1.1-0.3h0.3l0.3,0.2l0.8,0.1l1.1,0.9
		l0.1,0.3l0.1,0.3l0.1,0.9l-0.1,1.4l-0.4,0.8l-0.8,0.8l-1.3,0.6l-1,0.2h-1.1l-0.8-0.2l-0.8-0.3l-0.9-0.3l-1.2-1.2l-0.5-0.6v-0.5
		l-0.1-0.3l-0.4-0.2l-0.1-1l-0.3-1l0.1-1.3l0.1-0.4v-0.6l0.4-1l0.1-0.7l1.5-2.1l0.2-0.5l0.7-0.6l1.7-1l0.6-0.3l1.5-0.4l0.9-0.6
		l1.5-0.5l0.8-0.9l0.1-0.3l0.2-0.6l0.2-0.8l1.1-0.8L796.1,102.9z M799.2,125.6l-1,0.6l-0.7,0.4l-0.8,0.2h-0.6l-0.8,0.3l-0.6,0.5
		l-0.4-0.1h-0.5l-0.5,0.5l0.1,0.6l0.1,0.6l0.2,0.8l0.3,2.6l0.1,0.4l-0.3,0.6l0.1,1l-0.2,2.6v1l-0.8,0.8l0.7,0.1l0.5,0.1h1.1l0.5,0.1
		l0.5-0.1l1.7,0.1l0.9,0.2l1,0.3l-0.3-0.6l-0.3-0.3l-0.4-6.8l-0.3-1.4l0.3-0.9L799.2,125.6z"/>
	<path class="st1" d="M834.3,102.9h0.7l1.5,0.5l0.6,0.3l2.9,2.5l0.3,0.3l0.6,0.3l1.4,0.8l0.4,0.1l0.6,0.3l0.6,0.1h0.6l0.9,0.6
		l1.2,0.1l0.6,0.1h0.6l1,0.8l0.2,0.3v0.3l-0.9,1.6l-0.1,0.3l-0.2,0.4l-0.5,1l-0.1,1l-0.3,1.8l-0.2,0.8l-0.2,0.7v0.5l-0.2,1.7
		l-0.1,0.6v1v1.2l-0.1,0.4l-0.2,0.6l0.3,0.5l0.3,1.3l-0.3,0.6l-0.1,0.9l0.3,0.8v0.3l-0.3,0.9v1.1l0.3,0.6v1.2l-0.3,0.9l0.2,1.1v1.3
		l0.3,0.5l0.3,1.3l0.8,0.7l1.4,1.9l1.6,2l0.2,0.3l0.3,1.8l0.1,0.4l0.1,0.9l-0.1,1v0.5l-0.2,0.6v1.2l-0.1-0.4l-0.1,0.3l-1.3,3.2
		l-0.6,0.6l-0.4,0.6l-1.6,1.5l-0.5,0.3l-0.7,1.1l-1,0.6l-0.4,0.5l-0.3,0.1l-1.7,0.7l-1.5,0.5l-0.6,0.2l-0.5,0.3l-1.3,0.3l-0.3,0.3
		h-0.3l-0.5,0.2l-0.6,0.3l-0.4,0.1l-0.9,0.4l-0.4,0.1l-0.7,0.1l-0.4,0.5l-0.4,0.3l-0.4,1l0.6,1.3l0.2,0.6l-0.4,1.5l-0.5,0.6
		l-0.5,0.1l-0.9,0.5l-0.8,0.1l-1.3-0.3l-1.6-0.6l-0.8-0.3l-1.3-1l-1-0.7h-0.3l-0.7-0.5l-0.8-0.8l-0.4-0.2l-1.3-0.9l-1.1-0.7
		l-0.6,0.1l-0.6-0.5l-0.5-0.6l-0.4-0.3l-0.3-0.2l-0.4-0.4l-0.5-0.2l-0.5-0.1l-0.3-0.3l-0.4-0.3l-0.7-0.2l-0.4-0.1l-0.8-0.3l-0.8,0.1
		h-1l-1.3,0.7l-0.6,1.1v0.8l0.3,0.3l0.8,0.1h0.6l0.5-0.3l0.3-0.3h0.6l0.9,0.2l0.3,0.4l0.6,0.6l0.1,0.5l-0.1,0.8l-0.2,0.7l-0.3,0.5
		l-0.4,0.4l-0.2,0.3l-0.4,0.5l-0.7,0.2l-0.7,0.3h-1.4l-1.9-0.6l-0.7-0.3l-0.3-0.1l-0.7-0.8l-1.9-2.7l0.9-0.3l-0.6-0.2v-1.7l0.1-0.7
		l0.2-0.5l0.3-0.8l0.2-0.3l0.4-0.7l0.7-0.7l0.7-0.7l1.6-0.8l0.7-0.2l1.3-0.5l0.8-0.2h1.4l0.4-0.1l1.1,0.5l0.7-0.1l1,0.3l1.2-1
		l0.1-0.6l0.5-0.6l0.3-0.3l0.3-0.2l0.7-0.2l0.6-0.2l0.6,0.1h0.7l0.8,0.3l0.5,0.3l0.7,0.2l0.6,0.2l0.2,0.3l0.8,0.6l0.5,0.3l0.5,0.2
		l0.3,0.3l0.4,0.3l0.6,0.8l0.7,0.2l1.4,1l1,0.7l0.4,0.1l0.6,0.3l0.6-0.3l1.2,0.3h0.7h0.8l1.2-0.2l2.1-0.8l0.6-0.2l0.3-0.3l0.5-0.4
		l0.2-0.3l0.6-0.6l0.6-1.1l0.1-0.9l-0.3-0.3l-0.1-0.3v-0.3l0.7-1.1v-0.4l-0.3-1.9l-0.9-1l-0.4-0.5l-0.2-0.3l-0.2-0.4l-0.4-0.5
		l-1.7-1l-0.8,0.2l-0.7,0.2l-0.9,0.5l-0.4,0.1l-1.2,0.9l-0.6,0.7l-0.2,0.5l-0.3,1.3l0.1,0.3l0.3,1v1l-0.1,0.6l-0.7,0.4l-1.3,0.2
		l-0.4-0.2l-1.3-0.5l-1.8-1.3l-1.1-1.3l-0.6-0.4l-0.5-0.6h-0.6l-0.6-0.7l-0.3-0.1l-0.5-0.3l-0.4-0.2l-0.8-0.3h-1l-0.6-0.6l-1.1-0.7
		l-0.3-0.6l-0.1-0.6l0.3-1l0.9-0.9l0.3-0.4v-0.6l0.2-0.9l-0.1-0.4l-0.1-0.8v-0.7l0.1-0.6l0.2-0.4l0.1-1.7l-0.4-0.6l-0.1-0.6
		l-0.1-0.5l0.1-0.3l0.2-0.3l0.3-0.6v-1.7l0.1-0.3v-0.3l0.1-0.7l-0.1-0.4l-0.1-0.6v-0.3l0.2-0.7l-0.2-0.8v-0.6l0.2-0.3l-0.1-0.6
		l-0.1-0.3v-0.6v-1.3l0.2-0.8l-0.1-1.2v-0.8l-0.3-0.6l0.1-0.6v-1.3l-0.4-1.5l-0.2-0.3l-0.8-0.7l-0.2-0.5l0.1-1.1l0.9-1.2h0.4
		l0.4-0.4h0.4l0.4-0.2l0.6-0.1l0.7-0.3l0.4,0.1h0.9l1.9-0.5l0.3-0.2l1-0.1l0.6-0.3l0.9-0.4l0.5-0.4l0.4-0.2l0.6-0.2l0.3,0.2l0.5,0.1
		l0.1-1.1l0.5-0.4l0.5-0.9l0.2-0.3l0.1-0.4l0.3-0.5l0.5-0.9L834.3,102.9z M830.9,111.6l-0.3,0.1l-0.5,0.2l-0.2,0.4v0.3l0.4,1.2
		l0.1,0.7l0.1,0.6l0.2,1l-0.1,1.2l0.1,1.4v0.6l-0.1,1.4l0.3,0.4l-0.1,0.5l0.2,1.4v0.4l0.2,1v0.8l-0.6,1.6l0.9,0.3l-0.2,0.9v0.6
		l-0.2,0.8l0.1,1.6l0.1,0.7l-0.1,0.5l-0.1,0.9l-0.3,1.3l-0.3,0.4l-0.3,1.5l-1.5,1.5l0.8,0.2l1,0.5l0.5,0.1l0.6,0.2l1.1,0.2l0.8,0.2
		l0.6,0.1l0.4,0.1h0.6l0.7,0.2l0.8,0.1l0.4-0.6l-0.1-0.5l-0.3-1l-0.4-1.1v-0.6v-0.4l-0.1-0.8l0.1-2.9l-0.1-0.6v-0.4l-0.1-0.6
		l0.4-0.8l-0.2-0.8l-0.3-0.9l0.2-1.7l0.3-1l0.1-1.2l0.1-0.6l-0.2-1l0.2-0.8l-0.5-0.7v-0.5l0.3-0.6l0.3-0.3l1-2.9l0.3-0.9l0.5-0.3
		l-1.3-0.6l-1-0.1l-1.3-0.9l-0.5-0.3l-0.9-0.7l-0.3-0.2l-0.7-0.4l-0.4-0.3l-0.3-0.1L830.9,111.6z"/>
	<path class="st1" d="M872.2,102.8h1.3l0.8,0.5l0.2,0.6l1.2,1.9l0.9,1.5l0.4,1l0.6,1l0.3,0.8l0.2,0.5l-0.1,0.3l0.1,0.7l0.2,0.4
		l0.2,0.7l0.6,0.8l1,0.9l0.3,0.6l0.2,0.9l0.3,0.9l0.4,0.7l0.4,1.3l1.2,1l0.3,0.9l-0.2,0.8l-0.7,0.8l-0.3,0.6l-2.1,1.3l-1.4,0.9
		l-1,0.4l-0.4,0.3l-0.6,0.6l-0.4,0.2l-1.1,0.3l-0.7,0.5l-0.5,0.2l-1.5,0.9h-0.3l-0.6,0.5l-0.3,0.1l-1.2,1.2L869,131l-0.1,0.3v0.4
		l-0.1,0.5l-0.7,0.7l-1.3-0.1l0.1,1l-0.1,0.7l-0.3,0.5l-0.3,0.8l-0.4,0.5l-0.2,0.5l0.1,0.8l0.3,0.6l0.4,0.1l0.4,0.2h0.5h1.1l0.8,0.4
		l1.2,0.1l1,0.1l0.5,0.1h0.3l1.2,0.2l1.2,0.1l1.2-0.2l0.5-0.3l0.2-0.4l0.2-0.4l-0.1-0.3v-0.3l-0.3-0.5l-0.3-0.6l-0.3-1.1l0.3-1.1
		l0.3-0.4l0.3-0.6l0.9-0.4l0.5-0.1h0.6l0.9,0.3l0.5,0.2l0.6,0.7l0.3,0.8l0.2,2.3l-0.2,0.4l-0.2,1l-0.2,1.1l-0.3,0.7l-0.5,0.3
		l-0.3,0.6l-0.1,0.5l-0.8,0.9l-0.6,0.6l-3.8,3.1l-0.3,0.6l-0.2,1.1l0.3,0.5l0.1,0.8l-0.2,0.7l-0.5,0.7l-0.5,0.1l-1.4,0.3l-0.6-0.2
		l-1.1-0.2l-0.6-0.2l-0.8-0.3l-0.5-0.3l-0.6-0.1l-0.5-0.1l-0.7-0.5l-0.8-0.2l-1.5-0.9l-0.5-0.2l-0.8-0.4l-0.9-0.5l-0.8-0.3l-1.3-0.8
		l-1.2-0.4l-1.1-0.5l-0.5-0.1h-1.3l-0.5-0.3l-0.6-0.6l-0.3-0.6l0.1-0.3l0.2-0.6l0.4-0.6l1-1l0.5-0.8l0.1-0.8l0.2-0.7l0.2-1.2v-0.6
		l-0.1-1v-0.6l-0.3-0.3l-0.1-0.8l0.5-0.3l-0.3-0.6l0.2-0.9l-0.1-0.5l-0.4-1l0.4-0.4l0.1-0.3v-0.3l-0.1-1.4l0.1-0.3v-2.9l-0.1-0.6
		v-0.8l-0.1-1.2l0.1-0.8l-0.1-1l0.1-0.6l0.1-0.4l-0.2-0.3l-0.2-1.6l-0.1-1l0.1-0.7l-0.3-1l-0.3-0.4l-1-0.7l-0.3-0.3l-0.1-0.4
		l0.1-0.8l0.6-0.8l1.2-0.5l1.9-0.3l1-0.3l0.3-0.2l0.5-0.1l3.7-1.1l0.6-0.3h0.4l0.3-0.3l0.3-0.4l0.6,0.2l0.9-0.4l0.6-0.5l1.3-0.8
		l0.3-0.2l1.7-1.6l0.3-0.6l0.1-0.6l0.6-0.6L872.2,102.8z M866.3,111.5l-0.3,0.7v0.7l0.2,0.5l0.2,0.7l0.2,1.2l0.1,0.4l0.2,0.3
		l0.1,1.9l0.1,0.3l0.2,0.6l0.2,0.9l-0.3,0.6l0.3,0.8v0.5l-0.2,0.5l-0.3,0.9l0.1,0.3l0.1,0.3l-0.1,0.7l0.1,0.4v0.6l0.1,0.4l-0.2,0.8
		l0.3,0.4l1.2-1.5l1.3-0.4l0.2-0.4l0.3-0.2l0.3-0.3l0.5-0.2l0.7-1.3l0.2-0.3l-0.2-0.5l-0.4-0.8l-0.2-0.4l-0.1-0.6l-0.6-1.3l-1.3-3.2
		l-0.3-0.3l-0.9-1.7l-0.2-0.6l-1.1-1.9L866.3,111.5z"/>
</g>
</svg>
